<svg xmlns="http://www.w3.org/2000/svg" width="995.886" height="792.533" viewBox="0 0 995.886 792.533"><g transform="translate(-463 -144)"><path d="M421.58,14.75C298.94-32.12,156.66,37.27,68.44,157.85c-26,35.59-47.95,77.63-57.65,125.16C-.95,340.57,6.07,402.52,22.54,458.07c24.84,83.77,72.14,157.2,133.72,197.39s137.28,45.14,199.61,6.89c34.69-21.29,66.11-55.51,104.21-61.19,58.32-8.69,107.66,50.8,160.44,84.3,36.13,22.93,75.87,34.11,115.19,44.95,44.58,12.3,91.76,24.24,134.89,5.09,35.72-15.87,64.71-52.08,83.93-94.43s29.48-90.61,36.18-139c4.2-30.37,7.08-61.5,3.67-92-3.55-31.86-13.88-62-27.35-88.93-30.4-60.85-76.47-106.25-126.27-138.77s-103.59-53.1-157.18-72.88C587.25,73.85,520.94,32.9,421.82,14.55Z" transform="translate(463 144.006)" fill="#083d77" opacity="0.1"/><path d="M780.94,520.27c-22.49,73.35-31.52,213.34-31.52,213.34H206.11c1.77-66.58-37.12-204.47-38.3-215.07-1-8.86,35-54.68,46.91-69.57a12.47,12.47,0,0,1,9.74-4.68H715.53a12.59,12.59,0,0,1,7.16,2.26,186.791,186.791,0,0,1,57.34,64.25,12.43,12.43,0,0,1,.91,9.47Z" transform="translate(463 144.006)" fill="#3f3d56"/><path d="M255.02,603.38H691.07v50.68H255.02Z" transform="translate(463 144.006)" fill="#3f3d56"/><rect width="436.05" height="50.68" rx="21.5" transform="translate(718.02 747.386)" fill="#fff" opacity="0.1"/><path d="M232.63,491.41s-27.11-83.67,17.68-95.46,142.63,3.54,142.63,3.54,76.61-38.89,165-8.25c0,0,126.1-37.71,150.85-1.18s-5.89,101.35-5.89,101.35Z" transform="translate(463 144.006)" fill="#3f3d56"/><path d="M213.19,519.11l22.39-44.78,18.86,87.21-3.54,31.82Zm513.82,0-22.39-44.78-18.85,87.21,3.53,31.82Z" transform="translate(463 144.006)" opacity="0.1"/><path d="M252.79,559.16l425.91-2.34,4.71,47.14-428.97-1.17Z" transform="translate(463 144.006)" opacity="0.1"/><path d="M464.12,558.91a4.4,4.4,0,0,0-.57,1.22c-.44,1.25-.92,2.49-1.39,3.73l-.67,1.73a44.628,44.628,0,0,1-2.55,5.88,5.33,5.33,0,0,1-1,1.34c-.42.38-1,.82-.84,1.35a4.35,4.35,0,0,0,2.06,0,8.627,8.627,0,0,0,2.4-1.22l8.75-5.64a13.563,13.563,0,0,0,2.69-2.07,25.747,25.747,0,0,0,1.82-2.47c1.78-2.41,4.32-4.23,5.81-6.84a.34.34,0,0,0,.05-.14c0-.18-.25-.23-.44-.21-4.45.45-8.68,2.07-13.11,2.74-.95.09-2.37-.23-3.01.6Z" transform="translate(463 144.006)" fill="#fed253"/><path d="M464.99,560.37c-.14.34-.26.77,0,1l.28-.17-.33-.65m1,3.44c-.14.33-.26.76,0,1l.28-.17-.33-.64m-5.67,6.24c-.14.33-.25.76,0,1l.27-.17-.33-.64m2.04-1.46c-.13.33-.25.76,0,1l.28-.17-.33-.64m10.97-7.18c-.13.34-.25.76,0,1l.28-.17-.33-.65m-3.56.73c-.13.34-.25.77,0,1l.27-.17-.33-.65m-1.21-2.16c-.13.33-.25.76,0,1l.27-.17-.33-.64m-5.24,5.09c-.1.19-.19.45,0,.59l.17-.11-.17-.36m-2,3.36c-.09.2-.18.45,0,.59l.18-.11-.18-.36m7-4.57c-.09.2-.18.45,0,.6l.17-.11-.17-.36m-3.16,3.87c-.13-.18-.3-.38-.5-.32v.2h.4m-.81-3.5c-.13-.18-.31-.37-.5-.31v.2h.4m7.73-3.87c-.14.34-.26.77,0,1l.28-.17-.33-.65m2.03-1.45c-.13.34-.25.77,0,1l.27-.17-.32-.65m.76-2.96c-.1.2-.19.45,0,.59l.17-.11-.18-.36m-1.96,3.4c-.1.2-.19.46,0,.6l.17-.11-.17-.36m3.84-.62c-.13-.18-.31-.38-.5-.32v.21h.4m-.81-3.5c-.13-.18-.31-.38-.5-.32v.21h.4m-7.21,6.21c-.13-.18-.31-.37-.5-.32v.21h.4m5.07-3.09c-.13-.18-.31-.38-.51-.32v.21h.4" transform="translate(463 144.006)" opacity="0.2"/><path d="M467.66,561.27a4.1,4.1,0,0,0-.58,1.21c-.43,1.26-.91,2.5-1.39,3.74l-.66,1.73a45.261,45.261,0,0,1-2.59,5.87,5,5,0,0,1-1,1.34c-.42.38-1,.82-.83,1.36a4.44,4.44,0,0,0,2,0,9,9,0,0,0,2.41-1.22l8.74-5.64a13.351,13.351,0,0,0,2.7-2.07,29.647,29.647,0,0,0,1.82-2.47c1.77-2.42,4.32-4.24,5.8-6.84a.24.24,0,0,0,0-.14c0-.19-.25-.23-.43-.22-4.46.46-8.69,2.08-13.11,2.75-.83.09-2.24-.23-2.88.6Z" transform="translate(463 144.006)" fill="#fed253"/><path d="M468.52,562.73c-.13.34-.25.76,0,1l.27-.18-.33-.64m.97,3.43c-.13.34-.25.77,0,1l.27-.17-.32-.65m-5.63,6.25c-.13.34-.25.77,0,1l.28-.17-.33-.65m2.04-1.45c-.13.34-.25.77,0,1l.27-.17-.33-.65m10.98-7.16c-.13.33-.25.76,0,1l.27-.17-.33-.64m-3.55.72c-.14.34-.26.76,0,1l.28-.18-.33-.64m-1.22-2.16c-.14.33-.26.76,0,1l.28-.17-.33-.65m-5.28,5.09c-.1.2-.19.45,0,.59l.18-.11-.18-.35m-1.97,3.36c-.1.2-.19.45,0,.59l.17-.11-.18-.36m6.96-4.57c-.1.2-.19.45,0,.59l.18-.11-.18-.36m-3.11,3.87c-.13-.17-.31-.37-.5-.31v.2h.4m-.81-3.5c-.13-.18-.31-.38-.5-.32v.21h.4m7.72-3.87c-.13.34-.25.76,0,1l.27-.18-.32-.64m2.04-1.45c-.14.34-.26.76,0,1l.28-.18-.33-.64m.75-2.96c-.09.2-.18.45,0,.59l.18-.11-.18-.36m-1.96,3.36c-.1.2-.19.45-.05.59l.18-.11-.18-.35m3.89-.58c-.13-.18-.31-.38-.5-.32v.21h.4m-.82-3.5c-.13-.18-.3-.38-.5-.32v.2h.4m-7.2,6.19c-.13-.18-.31-.38-.5-.32v.21h.4m5.06-3.07c-.13-.17-.31-.37-.5-.31v.2h.4" transform="translate(463 144.006)" opacity="0.2"/><path d="M444.09,557.73a4.15,4.15,0,0,0-.58,1.22c-.43,1.25-.91,2.49-1.39,3.74l-.67,1.73a45,45,0,0,1-2.58,5.87,5.2,5.2,0,0,1-1,1.34c-.42.38-1,.82-.83,1.35a4.311,4.311,0,0,0,2-.05,8.688,8.688,0,0,0,2.41-1.22l8.74-5.63a13.772,13.772,0,0,0,2.7-2.08,28.052,28.052,0,0,0,1.82-2.47c1.77-2.41,4.32-4.23,5.8-6.83a.3.3,0,0,0,.05-.15c0-.18-.25-.23-.43-.21-4.46.46-8.69,2.07-13.11,2.74-.88.19-2.29-.18-2.93.65Z" transform="translate(463 144.006)" fill="#fed253"/><path d="M444.94,559.19c-.13.34-.25.77,0,1l.27-.17-.33-.65m.98,3.44c-.13.33-.25.76,0,1l.27-.17-.32-.64m-5.63,6.27c-.13.34-.25.76,0,1l.28-.17-.33-.64m2.04-1.49c-.13.34-.25.76,0,1l.27-.17-.33-.64m10.98-7.18c-.13.34-.25.77,0,1l.27-.17-.33-.65m-3.55.74c-.14.33-.26.76,0,1l.28-.17-.33-.65m-1.22-2.17c-.14.34-.26.76,0,1l.28-.18-.33-.64m-5.28,5.1c-.1.2-.19.45-.05.59l.18-.11-.18-.36m-1.89,3.36c-.1.2-.19.45,0,.59l.17-.11-.18-.36m6.93-4.52c-.1.2-.19.46,0,.6l.18-.11-.18-.36m-3.11,3.87c-.13-.18-.31-.38-.5-.32v.21h.4m-.81-3.55c-.13-.18-.31-.38-.5-.32v.2h.4m7.72-3.86c-.13.33-.25.76,0,1l.27-.17-.32-.65m2.04-1.46c-.14.34-.26.77,0,1l.28-.17-.33-.65m.75-2.96c-.09.2-.18.45,0,.59l.18-.11-.18-.35m-1.97,3.36c-.09.2-.18.45,0,.59l.18-.11-.18-.36m3.85-.58c-.13-.17-.31-.37-.5-.31v.2h.4m-.82-3.5c-.13-.18-.3-.38-.5-.32v.21h.4m-7.2,6.18c-.13-.17-.31-.37-.5-.31v.2h.4m5.06-3.06c-.13-.18-.31-.38-.5-.32v.21h.4" transform="translate(463 144.006)" opacity="0.2"/><path d="M461.76,553.02a4.4,4.4,0,0,0-.57,1.22c-.44,1.25-.91,2.49-1.39,3.73l-.67,1.73a44.647,44.647,0,0,1-2.59,5.88,5.109,5.109,0,0,1-1,1.33c-.42.38-1,.82-.83,1.36a4.44,4.44,0,0,0,2.05,0,8.768,8.768,0,0,0,2.4-1.22l8.75-5.64a13.941,13.941,0,0,0,2.7-2.07,27.46,27.46,0,0,0,1.81-2.47c1.78-2.42,4.32-4.24,5.81-6.84a.339.339,0,0,0,0-.14c0-.18-.25-.23-.43-.22-4.46.46-8.69,2.08-13.11,2.75-.87.09-2.29-.23-2.93.6Z" transform="translate(463 144.006)" fill="#fed253"/><path d="M462.63,554.48c-.14.34-.26.76,0,1l.27-.18-.33-.64m.97,3.43c-.13.34-.25.77,0,1l.27-.17-.33-.65m-5.62,6.26c-.13.33-.25.76,0,1l.27-.17-.32-.64m2.04-1.45c-.14.33-.26.76,0,1l.28-.17-.33-.65m10.97-7.18c-.14.34-.26.76,0,1l.28-.17-.33-.64m-3.57.72c-.13.34-.25.77,0,1l.28-.17-.33-.65m-1.22-2.16c-.13.33-.25.76,0,1l.28-.17-.33-.64m-5.28,5.08c-.09.2-.18.45,0,.59l.18-.11-.18-.35m-1.96,3.36c-.1.2-.19.45,0,.59l.18-.11-.18-.36m6.94-4.57c-.09.2-.18.45,0,.59l.18-.11-.18-.36m-3.1,3.87c-.13-.17-.31-.37-.5-.31v.2h.4m-.82-3.5c-.13-.18-.3-.38-.5-.32v.21h.4m7.73-3.87c-.14.34-.25.76,0,1l.27-.18-.33-.64m2.04-1.45c-.13.34-.25.76,0,1l.28-.18-.33-.64m.76-2.96c-.1.2-.19.45,0,.59l.17-.11-.17-.36m-1.97,3.36c-.09.2-.18.45,0,.59l.18-.11-.18-.35m3.84-.58c-.13-.18-.3-.38-.5-.32v.21h.4m-.81-3.51c-.13-.18-.31-.38-.5-.32v.2h.4m-7.21,6.2c-.12-.18-.3-.38-.5-.32v.21h.4m5.07-3.06c-.13-.18-.31-.38-.5-.32v.2h.4" transform="translate(463 144.006)" opacity="0.2"/><path d="M458.23,550.66a3.89,3.89,0,0,0-.57,1.22c-.44,1.25-.92,2.49-1.4,3.73l-.66,1.73a46,46,0,0,1-2.59,5.88,5.371,5.371,0,0,1-1,1.34c-.41.38-1,.82-.83,1.35a4.3,4.3,0,0,0,2,0,8.549,8.549,0,0,0,2.41-1.22l8.74-5.63a13.773,13.773,0,0,0,2.7-2.08,26.189,26.189,0,0,0,1.82-2.47c1.77-2.41,4.32-4.23,5.8-6.84a.35.35,0,0,0,.06-.14c0-.18-.25-.23-.44-.21-4.46.45-8.69,2.07-13.11,2.74-.87.09-2.29-.23-2.93.6Z" transform="translate(463 144.006)" fill="#fed253"/><path d="M458.23,550.66a3.89,3.89,0,0,0-.57,1.22c-.44,1.25-.92,2.49-1.4,3.73l-.66,1.73a46,46,0,0,1-2.59,5.88,5.371,5.371,0,0,1-1,1.34c-.41.38-1,.82-.83,1.35a4.3,4.3,0,0,0,2,0,8.549,8.549,0,0,0,2.41-1.22l8.74-5.63a13.773,13.773,0,0,0,2.7-2.08,26.189,26.189,0,0,0,1.82-2.47c1.77-2.41,4.32-4.23,5.8-6.84a.35.35,0,0,0,.06-.14c0-.18-.25-.23-.44-.21-4.46.45-8.69,2.07-13.11,2.74-.87.09-2.29-.23-2.93.6Z" transform="translate(463 144.006)" opacity="0.05"/><path d="M459.09,552.12c-.13.34-.25.77,0,1l.27-.17-.32-.65m.97,3.44c-.14.33-.26.76,0,1l.28-.17-.33-.64m-5.63,6.24c-.14.33-.26.76,0,1l.28-.17-.33-.64m2.03-1.46c-.13.33-.25.76,0,1l.27-.17-.32-.64m10.97-7.18c-.13.34-.25.77,0,1l.27-.17-.33-.65m-3.55.73c-.14.34-.26.77,0,1l.27-.17-.33-.65m-1.21-2.16c-.14.34-.26.76,0,1l.27-.17-.33-.64m-5.27,5.09c-.1.2-.19.45,0,.59l.17-.11-.25-.33m-1.89,3.33c-.1.2-.19.45,0,.59l.17-.11-.17-.36m6.95-4.57c-.1.2-.19.45,0,.6l.17-.11-.23-.37m-3,3.88c-.13-.18-.31-.38-.5-.32v.21h.4m-.9-3.51c-.13-.17-.31-.37-.5-.31v.2h.4m7.76-3.87c-.13.34-.25.77,0,1l.28-.17-.33-.65m2.04-1.46c-.14.34-.25.77,0,1l.27-.17-.33-.65m.77-2.95c-.1.2-.19.45-.05.59l.18-.11-.18-.36m-1.92,3.37c-.1.19-.19.45,0,.59l.18-.11-.18-.36m3.84-.58c-.13-.18-.31-.37-.5-.32v.21h.4m-.81-3.5c-.13-.18-.31-.38-.5-.32v.21h.4m-7.22,6.18c-.13-.18-.31-.37-.5-.31v.2h.4m5.1-3.06c-.13-.18-.31-.38-.5-.32v.21h.4" transform="translate(463 144.006)" opacity="0.2"/><path d="M451.16,561.27a3.839,3.839,0,0,0-.57,1.21c-.44,1.26-.92,2.5-1.4,3.74l-.66,1.73a45.228,45.228,0,0,1-2.59,5.87,5,5,0,0,1-1,1.34c-.42.38-1,.82-.83,1.36a4.44,4.44,0,0,0,2,0,9,9,0,0,0,2.41-1.22l8.74-5.64a13.35,13.35,0,0,0,2.7-2.07,27.548,27.548,0,0,0,1.82-2.47c1.77-2.42,4.32-4.24,5.8-6.84a.35.35,0,0,0,.06-.14c0-.19-.26-.23-.44-.22-4.46.46-8.69,2.08-13.11,2.75-.87.09-2.29-.23-2.93.6Z" transform="translate(463 144.006)" fill="#fed253"/><path d="M452.02,562.73c-.13.34-.25.76,0,1l.27-.18-.33-.64m.98,3.43c-.13.34-.25.77,0,1l.28-.17-.33-.65m-5.63,6.25c-.14.34-.26.77,0,1l.28-.17-.33-.65m2.03-1.45c-.13.34-.25.77,0,1l.27-.17-.33-.65m10.98-7.16c-.13.33-.25.76,0,1l.27-.17-.33-.64m-3.55.72c-.14.34-.26.76,0,1l.28-.18-.33-.64m-1.22-2.16c-.14.33-.26.76,0,1l.28-.17-.33-.65m-5.29,5.09c-.1.2-.19.45,0,.59l.18-.11-.18-.35m-2,3.36c-.1.2-.19.45,0,.59l.17-.11-.17-.36m7-4.57c-.1.2-.19.45,0,.59l.17-.11-.18-.36m-3.11,3.87c-.13-.17-.31-.37-.5-.31v.2h.4m-.78-3.5c-.13-.18-.31-.38-.5-.32v.21h.4m7.69-3.87c-.13.34-.25.76,0,1l.27-.18-.32-.64m2.04-1.45c-.14.34-.26.76,0,1l.27-.18-.33-.64m.76-2.96c-.09.2-.18.45,0,.59l.18-.11-.18-.36m-1.96,3.36c-.1.2-.19.45-.05.59l.18-.11-.18-.35m3.89-.58c-.13-.18-.31-.38-.5-.32v.21h.4m-.82-3.5c-.12-.18-.3-.38-.5-.32v.2h.4m-7.2,6.19c-.13-.18-.31-.38-.5-.32v.21h.4m5.06-3.07c-.13-.17-.31-.37-.5-.31v.2h.4" transform="translate(463 144.006)" opacity="0.2"/><path d="M471.19,549.48a4.4,4.4,0,0,0-.57,1.22c-.44,1.25-.92,2.5-1.39,3.74l-.67,1.73a45.09,45.09,0,0,1-2.59,5.87,5.16,5.16,0,0,1-1,1.34c-.42.38-1,.82-.84,1.35a4.35,4.35,0,0,0,2.06-.05,8.629,8.629,0,0,0,2.4-1.22l8.75-5.63a14,14,0,0,0,2.69-2.08,24.535,24.535,0,0,0,1.82-2.47c1.78-2.41,4.32-4.23,5.81-6.83a.381.381,0,0,0,0-.15c0-.18-.25-.23-.44-.21-4.45.46-8.68,2.08-13.1,2.74-.87.14-2.29-.18-2.93.65Z" transform="translate(463 144.006)" fill="#fed253"/><path d="M471.19,549.48a4.4,4.4,0,0,0-.57,1.22c-.44,1.25-.92,2.5-1.39,3.74l-.67,1.73a45.09,45.09,0,0,1-2.59,5.87,5.16,5.16,0,0,1-1,1.34c-.42.38-1,.82-.84,1.35a4.35,4.35,0,0,0,2.06-.05,8.629,8.629,0,0,0,2.4-1.22l8.75-5.63a14,14,0,0,0,2.69-2.08,24.535,24.535,0,0,0,1.82-2.47c1.78-2.41,4.32-4.23,5.81-6.83a.381.381,0,0,0,0-.15c0-.18-.25-.23-.44-.21-4.45.46-8.68,2.08-13.1,2.74-.87.14-2.29-.18-2.93.65Z" transform="translate(463 144.006)" opacity="0.05"/><path d="M472.06,550.95c-.14.33-.26.76,0,1l.28-.17-.33-.65m.93,3.43c-.14.34-.26.76,0,1l.27-.17-.33-.64m-5.59,6.24c-.13.34-.25.76,0,1l.27-.18-.33-.64m2.05-1.45c-.14.34-.26.76,0,1l.28-.17-.33-.64m10.97-7.18c-.14.34-.26.77,0,1l.28-.17-.33-.65m-3.57.74c-.13.33-.25.76,0,1l.27-.17-.32-.64m-1.22-2.18c-.13.34-.25.76,0,1l.27-.18-.33-.64m-5.31,5.1c-.09.2-.18.45,0,.59l.17-.11-.17-.36m-1.93,3.36c-.09.2-.18.45,0,.59l.18-.11-.18-.36m6.93-4.56c-.09.19-.18.45,0,.59l.18-.11-.18-.36m-3.09,3.87c-.13-.18-.3-.38-.5-.32v.21h.4m-.81-3.5c-.13-.18-.31-.38-.5-.32v.2h.4m7.73-3.86c-.14.33-.26.76,0,1l.28-.17-.33-.64m2.03-1.46c-.13.33-.25.76,0,1l.27-.17-.32-.65m.76-2.97c-.1.2-.19.45,0,.59l.17-.11-.17-.35m-1.97,3.36c-.1.2-.19.45,0,.59l.17-.11-.17-.36m3.84-.58c-.13-.17-.31-.37-.5-.31v.2h.4m-.81-3.5c-.13-.18-.31-.38-.5-.32v.21h.4m-7.18,6.19c-.13-.18-.31-.38-.5-.32v.2h.4m5.04-3.06c-.13-.18-.31-.38-.5-.32v.21h.4" transform="translate(463 144.006)" opacity="0.2"/><path d="M486.68,558.91a4.4,4.4,0,0,1,.57,1.22c.44,1.25.92,2.49,1.39,3.73l.67,1.73a44.632,44.632,0,0,0,2.63,5.88,5.329,5.329,0,0,0,1,1.34c.42.38,1,.82.84,1.35a4.351,4.351,0,0,1-2.06,0,8.63,8.63,0,0,1-2.4-1.22l-8.82-5.67a13.568,13.568,0,0,1-2.69-2.07,25.758,25.758,0,0,1-1.82-2.47c-1.78-2.41-4.32-4.23-5.81-6.84a.339.339,0,0,1,0-.14c0-.18.25-.23.44-.21,4.45.45,8.68,2.07,13.1,2.74.9.12,2.32-.2,2.96.63Z" transform="translate(463 144.006)" fill="#fed253"/><path d="M486.68,558.91a4.4,4.4,0,0,1,.57,1.22c.44,1.25.92,2.49,1.39,3.73l.67,1.73a44.632,44.632,0,0,0,2.63,5.88,5.329,5.329,0,0,0,1,1.34c.42.38,1,.82.84,1.35a4.351,4.351,0,0,1-2.06,0,8.63,8.63,0,0,1-2.4-1.22l-8.82-5.67a13.568,13.568,0,0,1-2.69-2.07,25.758,25.758,0,0,1-1.82-2.47c-1.78-2.41-4.32-4.23-5.81-6.84a.339.339,0,0,1,0-.14c0-.18.25-.23.44-.21,4.45.45,8.68,2.07,13.1,2.74.9.12,2.32-.2,2.96.63Z" transform="translate(463 144.006)" opacity="0.05"/><path d="M485.81,560.37c.14.34.26.77,0,1l-.28-.17.33-.65m-.92,3.44c.14.33.26.76,0,1l-.27-.17.33-.64m5.58,6.24c.13.33.25.76,0,1l-.27-.17.33-.64m-2.05-1.46c.14.33.26.76,0,1l-.28-.17.33-.64m-10.97-7.18c.14.34.26.76,0,1l-.28-.17.33-.65m3.57.73c.13.34.25.77,0,1l-.27-.17.32-.65m1.22-2.16c.13.33.25.76,0,1l-.27-.17.33-.64m5.32,5.09c.09.19.18.45,0,.59l-.17-.11.17-.36m1.92,3.36c.09.2.18.45,0,.59l-.18-.11.18-.36m-6.92-4.57c.09.2.18.45,0,.6l-.17-.11.17-.36m3.08,3.87c.13-.18.3-.38.5-.32v.2h-.4m.82-3.5c.13-.18.31-.37.5-.31v.2h-.4m-7.74-3.87c.14.34.26.77,0,1l-.28-.17.33-.65m-2.03-1.45c.13.34.25.77,0,1l-.27-.17.32-.65m-.76-2.96c.1.2.19.45,0,.59l-.17-.11.17-.36m1.97,3.4c.1.2.19.46,0,.6l-.17-.11.17-.36m-3.84-.62c.13-.18.31-.38.5-.32v.21h-.4m.81-3.5c.13-.18.31-.38.5-.32v.21h-.4m7.19,6.21c.13-.18.31-.37.5-.32v.21h-.39m-5.06-3.09c.13-.18.31-.38.5-.32v.21h-.4" transform="translate(463 144.006)" opacity="0.2"/><path d="M483.14,561.27a3.839,3.839,0,0,1,.57,1.21c.44,1.26.92,2.5,1.4,3.74l.66,1.73a45.257,45.257,0,0,0,2.59,5.87,5,5,0,0,0,1,1.34c.42.38,1,.82.83,1.36a4.44,4.44,0,0,1-2.05,0,9,9,0,0,1-2.41-1.22l-8.79-5.69a13.353,13.353,0,0,1-2.7-2.07,27.535,27.535,0,0,1-1.82-2.47c-1.77-2.42-4.32-4.24-5.8-6.84a.35.35,0,0,1-.06-.14c0-.19.26-.23.44-.22,4.46.46,8.69,2.08,13.11,2.75.97.14,2.39-.18,3.03.65Z" transform="translate(463 144.006)" fill="#fed253"/><path d="M483.14,561.27a3.839,3.839,0,0,1,.57,1.21c.44,1.26.92,2.5,1.4,3.74l.66,1.73a45.257,45.257,0,0,0,2.59,5.87,5,5,0,0,0,1,1.34c.42.38,1,.82.83,1.36a4.44,4.44,0,0,1-2.05,0,9,9,0,0,1-2.41-1.22l-8.79-5.69a13.353,13.353,0,0,1-2.7-2.07,27.535,27.535,0,0,1-1.82-2.47c-1.77-2.42-4.32-4.24-5.8-6.84a.35.35,0,0,1-.06-.14c0-.19.26-.23.44-.22,4.46.46,8.69,2.08,13.11,2.75.97.14,2.39-.18,3.03.65Z" transform="translate(463 144.006)" opacity="0.05"/><path d="M482.28,562.73c.13.34.25.76,0,1l-.27-.18.33-.64m-.97,3.43c.13.34.25.77,0,1l-.28-.17.33-.65m5.62,6.25c.14.34.26.77,0,1l-.28-.17.33-.65m-2.03-1.45c.13.34.25.77,0,1l-.27-.17.33-.65m-10.98-7.16c.13.33.25.76,0,1l-.27-.17.33-.64m3.55.72c.14.34.26.76,0,1l-.28-.18.33-.64m1.22-2.16c.14.33.26.76,0,1l-.28-.17.33-.65m5.28,5.09c.1.2.19.45.05.59l-.18-.11.18-.35m1.92,3.36c.1.2.19.45,0,.59l-.17-.11.17-.36m-6.95-4.57c.1.2.19.45,0,.59l-.17-.11.18-.36m3.1,3.87c.13-.17.31-.37.5-.31v.2h-.4m.81-3.5c.13-.18.31-.38.5-.32v.21h-.4m-7.72-3.87c.13.34.25.76,0,1l-.27-.18.32-.64m-2.04-1.45c.14.34.26.76,0,1l-.27-.18.33-.64m-.76-2.96c.09.2.18.45,0,.59l-.18-.11.18-.36m1.96,3.36c.1.2.19.45,0,.59l-.18-.11.18-.35m-3.84-.58c.13-.18.31-.38.5-.32v.21h-.4m.82-3.5c.13-.18.3-.38.5-.32v.2h-.4m7.2,6.19c.13-.18.31-.38.5-.32v.21h-.4m-5.06-3.07c.13-.17.31-.37.5-.31v.2h-.4" transform="translate(463 144.006)" opacity="0.2"/><path d="M496.11,554.2a4.331,4.331,0,0,1,.57,1.21c.44,1.26.91,2.5,1.39,3.74l.67,1.73a44.521,44.521,0,0,0,2.59,5.87,5,5,0,0,0,1,1.34c.42.38,1,.82.83,1.36a4.441,4.441,0,0,1-2.05,0,8.772,8.772,0,0,1-2.4-1.22l-8.77-5.69a14,14,0,0,1-2.7-2.08,27.289,27.289,0,0,1-1.81-2.46c-1.78-2.42-4.32-4.24-5.81-6.84a.339.339,0,0,1,0-.14c0-.19.25-.24.43-.22,4.46.46,8.69,2.08,13.11,2.75.89.14,2.31-.18,2.95.65Z" transform="translate(463 144.006)" fill="#fed253"/><path d="M496.11,554.2a4.331,4.331,0,0,1,.57,1.21c.44,1.26.91,2.5,1.39,3.74l.67,1.73a44.521,44.521,0,0,0,2.59,5.87,5,5,0,0,0,1,1.34c.42.38,1,.82.83,1.36a4.441,4.441,0,0,1-2.05,0,8.772,8.772,0,0,1-2.4-1.22l-8.77-5.69a14,14,0,0,1-2.7-2.08,27.289,27.289,0,0,1-1.81-2.46c-1.78-2.42-4.32-4.24-5.81-6.84a.339.339,0,0,1,0-.14c0-.19.25-.24.43-.22,4.46.46,8.69,2.08,13.11,2.75.89.14,2.31-.18,2.95.65Z" transform="translate(463 144.006)" opacity="0.05"/><path d="M495.24,555.66c.14.34.26.76,0,1l-.27-.17.33-.64m-.97,3.42c.13.34.25.77,0,1l-.27-.17.33-.65m5.62,6.25c.13.34.25.77,0,1l-.27-.17.32-.65m-2.04-1.45c.14.34.26.77,0,1l-.28-.17.33-.65m-10.97-7.16c.14.33.26.76,0,1l-.28-.17.33-.64m3.57.72c.13.34.25.76,0,1l-.28-.17.33-.64m1.22-2.18c.13.34.25.77,0,1l-.28-.17.33-.65m5.28,5.1c.09.2.18.45,0,.59l-.18-.11.18-.36m1.96,3.37c.1.19.19.45,0,.59l-.18-.11.18-.36m-6.94-4.57c.09.2.18.45,0,.59l-.18-.11.18-.36m3.1,3.87c.13-.18.31-.37.5-.32v.21h-.4m.82-3.5c.13-.18.3-.38.5-.32v.21h-.4m-7.73-3.87c.14.34.25.76,0,1l-.27-.17.33-.64m-2.04-1.46c.13.34.25.76,0,1l-.28-.17.33-.64m-.76-2.97c.1.2.19.45,0,.59l-.17-.11.17-.36m1.97,3.36c.09.2.18.45,0,.59l-.18-.11.18-.36m-3.84-.57c.13-.18.3-.38.5-.32v.21h-.4m.81-3.5c.13-.18.31-.38.5-.32v.2h-.4m7.21,6.19c.13-.18.3-.38.5-.32v.21h-.4m-5.07-3.07c.13-.18.31-.37.5-.31v.2h-.4" transform="translate(463 144.006)" opacity="0.2"/><path d="M452.5,555.38a3.839,3.839,0,0,1,.57,1.21c.44,1.26.92,2.5,1.4,3.74l.66,1.73a45.866,45.866,0,0,0,2.59,5.87,5,5,0,0,0,1,1.34c.41.38,1,.82.83,1.36a4.44,4.44,0,0,1-2.05-.06,8.689,8.689,0,0,1-2.41-1.22l-8.74-5.63a13.4,13.4,0,0,1-2.7-2.08,27.432,27.432,0,0,1-1.82-2.46c-1.77-2.42-4.32-4.24-5.8-6.84a.421.421,0,0,1-.06-.14c0-.19.25-.24.44-.22,4.46.46,8.69,2.08,13.11,2.74.92.15,2.34-.17,2.98.66Z" transform="translate(463 144.006)" fill="#fed253"/><path d="M452.5,555.38a3.839,3.839,0,0,1,.57,1.21c.44,1.26.92,2.5,1.4,3.74l.66,1.73a45.866,45.866,0,0,0,2.59,5.87,5,5,0,0,0,1,1.34c.41.38,1,.82.83,1.36a4.44,4.44,0,0,1-2.05-.06,8.689,8.689,0,0,1-2.41-1.22l-8.74-5.63a13.4,13.4,0,0,1-2.7-2.08,27.432,27.432,0,0,1-1.82-2.46c-1.77-2.42-4.32-4.24-5.8-6.84a.421.421,0,0,1-.06-.14c0-.19.25-.24.44-.22,4.46.46,8.69,2.08,13.11,2.74.92.15,2.34-.17,2.98.66Z" transform="translate(463 144.006)" opacity="0.05"/><path d="M451.64,556.84c.13.33.25.76,0,1l-.27-.17.32-.64m-.97,3.42c.14.34.26.76,0,1l-.28-.18.33-.64m5.63,6.25c.14.34.26.77,0,1l-.28-.17.33-.65m-2.03-1.45c.13.34.25.77,0,1l-.27-.17.32-.65m-10.97-7.16c.13.33.25.76,0,1l-.27-.17.33-.64m3.55.72c.14.33.26.76,0,1l-.27-.17.33-.64m1.21-2.18c.14.34.26.77,0,1l-.27-.17.33-.65m5.27,5.1c.1.2.19.45,0,.59l-.17-.11.18-.36m1.96,3.32c.1.2.19.45,0,.6l-.17-.11.17-.36m-6.95-4.53c.1.2.19.45,0,.59l-.17-.11.17-.36m3.11,3.87c.13-.18.31-.38.5-.32v.21h-.4m.81-3.48c.13-.18.31-.38.5-.32v.21h-.4m-7.72-3.89c.13.33.25.76,0,1l-.28-.17.33-.64M443.14,557c.14.33.25.76,0,1l-.27-.17.33-.64m-.76-2.92c.09.19.18.45,0,.59l-.18-.11.18-.36m1.96,3.31c.1.2.19.45,0,.59l-.18-.11.18-.36m-3.84-.55c.13-.18.31-.38.5-.32v.2h-.4m.81-3.52c.13-.18.31-.37.5-.31v.2h-.4m7.21,6.19c.13-.18.31-.38.5-.32v.21h-.4m-5.06-3.07c.13-.18.31-.38.5-.32v.21h-.4" transform="translate(463 144.006)" opacity="0.2"/><path d="M484.32,551.84a4.13,4.13,0,0,1,.57,1.22c.44,1.25.92,2.49,1.4,3.73l.66,1.73a46,46,0,0,0,2.59,5.88,5.368,5.368,0,0,0,1,1.34c.41.38,1,.81.83,1.35a4.3,4.3,0,0,1-2-.05,8.82,8.82,0,0,1-2.41-1.22l-8.74-5.64a13.348,13.348,0,0,1-2.7-2.07,27.541,27.541,0,0,1-1.82-2.47c-1.77-2.41-4.32-4.23-5.8-6.84a.35.35,0,0,1-.06-.14c0-.18.25-.23.44-.21,4.46.45,8.69,2.07,13.11,2.74.87.14,2.29-.18,2.93.65Z" transform="translate(463 144.006)" fill="#fed253"/><path d="M483.46,553.27c.13.34.25.77,0,1l-.27-.17.32-.65m-.97,3.47c.14.33.26.76,0,1l-.28-.17.33-.64m5.63,6.24c.14.33.26.76,0,1l-.28-.17.33-.64m-2.03-1.46c.13.33.25.76,0,1l-.27-.17.32-.64m-10.97-7.18c.13.34.25.76,0,1l-.27-.18.32-.64m3.57.73c.14.34.26.77,0,1l-.27-.17.33-.65m1.2-2.16c.14.33.26.76,0,1l-.27-.17.33-.64m5.27,5.06c.1.2.19.45,0,.6l-.17-.11.18-.36m1.96,3.38c.1.2.19.45,0,.59l-.17-.11.17-.36m-6.95-4.57c.1.2.19.45,0,.59l-.17-.11.17-.35m3.11,3.87c.13-.18.31-.38.5-.32v.2h-.4m.81-3.5c.13-.18.31-.37.5-.32v.21h-.4m-7.73-3.87c.13.34.25.77,0,1l-.28-.17.33-.65m-2.05-1.45c.13.34.25.77,0,1l-.27-.17.33-.65m-.75-2.96c.1.2.19.45.05.59l-.18-.11.18-.36m1.92,3.36c.1.2.19.45,0,.6l-.17-.11.18-.36m-3.85-.58c.13-.18.31-.38.5-.32v.21h-.4m.81-3.5c.13-.18.31-.38.5-.32v.21h-.4m7.21,6.18c.13-.18.31-.38.5-.32v.21h-.4M475.64,553c.13-.18.3-.38.5-.32v.2h-.4" transform="translate(463 144.006)" opacity="0.2"/><path d="M506.71,557.73a3.891,3.891,0,0,1,.57,1.22c.44,1.25.92,2.49,1.4,3.74l.66,1.73a46.493,46.493,0,0,0,2.6,5.85,5.2,5.2,0,0,0,1,1.34c.42.38,1,.82.83,1.35a4.31,4.31,0,0,1-2-.05,8.69,8.69,0,0,1-2.41-1.22l-8.74-5.63a13.769,13.769,0,0,1-2.7-2.08,26.175,26.175,0,0,1-1.82-2.47c-1.77-2.41-4.32-4.23-5.8-6.83a.471.471,0,0,1-.06-.15c0-.18.26-.23.44-.21,4.46.46,8.69,2.07,13.11,2.74.86.21,2.28-.16,2.92.67Z" transform="translate(463 144.006)" fill="#fed253"/><path d="M505.85,559.19c.13.34.25.77,0,1l-.27-.17.33-.65m-.97,3.44c.13.33.25.76,0,1l-.28-.17.33-.64m5.62,6.27c.14.34.26.76,0,1l-.28-.17.33-.64m-2.03-1.49c.13.34.25.76,0,1l-.27-.17.33-.64m-10.98-7.18c.13.34.25.77,0,1l-.27-.17.33-.65m3.55.74c.14.33.26.76,0,1l-.28-.17.33-.65m1.22-2.17c.14.34.26.76,0,1l-.28-.18.33-.64m5.3,5.1c.1.2.19.45,0,.59l-.18-.11.18-.4m2,3.4c.1.2.19.45,0,.59l-.17-.11.17-.36m-7-4.52c.1.2.19.46,0,.6l-.17-.11.18-.36m3.1,3.87c.13-.18.31-.38.5-.32v.21h-.4m.79-3.55c.13-.18.31-.38.5-.32v.2h-.4m-7.7-3.86c.13.33.25.76,0,1l-.27-.17.32-.65m-2.04-1.46c.14.34.26.77,0,1l-.27-.17.33-.65m-.76-2.96c.09.2.18.45,0,.59l-.18-.11.18-.35m1.96,3.36c.1.2.19.45.05.59l-.18-.11.18-.36m-3.89-.58c.13-.17.31-.37.5-.31v.2h-.4m.82-3.5c.13-.18.3-.38.5-.32v.21h-.4m7.2,6.18c.13-.17.31-.37.5-.31v.2h-.4m-5.06-3.06c.13-.18.31-.38.5-.32v.21h-.4" transform="translate(463 144.006)" opacity="0.2"/><path d="M499.64,561.27a3.839,3.839,0,0,1,.57,1.21c.44,1.26.92,2.5,1.4,3.74l.66,1.73a45.266,45.266,0,0,0,2.59,5.87,5,5,0,0,0,1,1.34c.41.38,1,.82.83,1.36a4.43,4.43,0,0,1-2.05,0,9,9,0,0,1-2.41-1.22l-8.74-5.64a13.35,13.35,0,0,1-2.7-2.07,27.545,27.545,0,0,1-1.85-2.52c-1.77-2.42-4.32-4.24-5.8-6.84a.35.35,0,0,1-.06-.14c0-.19.26-.23.44-.22,4.46.46,8.69,2.08,13.11,2.75C497.58,560.76,499,560.44,499.64,561.27Z" transform="translate(463 144.006)" fill="#fed253"/><path d="M498.78,562.73c.13.34.25.76,0,1l-.27-.18.32-.64m-.97,3.43c.14.34.26.77,0,1l-.28-.17.33-.65m5.63,6.25c.14.34.26.77,0,1l-.28-.17.33-.65m-2.03-1.45c.13.34.25.77,0,1l-.27-.17.32-.65m-10.97-7.16c.13.33.25.76,0,1l-.27-.17.33-.64m3.55.72c.14.34.26.76,0,1l-.31-.16.33-.64m1.25-2.18c.14.33.26.76,0,1l-.27-.17.33-.65m5.27,5.09c.1.2.19.45,0,.59l-.17-.11.18-.35m1.96,3.36c.1.2.19.45,0,.59l-.17-.11.17-.36m-6.95-4.57c.1.2.19.45,0,.59l-.17-.11.17-.36m3.07,3.87c.13-.17.31-.37.5-.31v.2h-.4m.9-3.5c.13-.18.31-.38.5-.32v.21h-.5m-7.67-3.87c.13.34.25.76,0,1l-.28-.18.33-.64m-2.04-1.45c.14.34.25.76,0,1l-.27-.18.33-.64m-.76-2.96c.09.2.18.45,0,.59l-.18-.11.18-.36m1.96,3.36c.1.2.19.45,0,.59l-.18-.11.18-.35m-3.84-.58c.13-.18.31-.38.5-.32v.21h-.4m.81-3.5c.13-.18.31-.38.5-.32v.2h-.4m7.23,6.19c.13-.18.31-.38.5-.32v.21h-.4m-5.1-3.07c.13-.17.31-.37.5-.31v.2h-.39" transform="translate(463 144.006)" opacity="0.2"/><path d="M519.03,564.9a4.28,4.28,0,0,1-.6,1.21c-.72,1.12-1.39,2.26-2.07,3.41l-.94,1.59a44.007,44.007,0,0,0-3,5.67,5.091,5.091,0,0,0-.44,1.6c0,.56,0,1.3-.55,1.49a4.329,4.329,0,0,1-1.23-1.64,8.74,8.74,0,0,1-.54-2.64l-1-10.36a13.35,13.35,0,0,1,0-3.4,23.993,23.993,0,0,1,.81-3c.79-2.89.64-6,1.76-8.79a.3.3,0,0,1,.08-.13c.14-.12.34.05.44.21,2.4,3.78,3.76,8.1,6,12C518.15,562.97,519.28,563.89,519.03,564.9Z" transform="translate(463 144.006)" fill="#fed253"/><path d="M519.03,564.9a4.28,4.28,0,0,1-.6,1.21c-.72,1.12-1.39,2.26-2.07,3.41l-.94,1.59a44.007,44.007,0,0,0-3,5.67,5.091,5.091,0,0,0-.44,1.6c0,.56,0,1.3-.55,1.49a4.329,4.329,0,0,1-1.23-1.64,8.74,8.74,0,0,1-.54-2.64l-1-10.36a13.35,13.35,0,0,1,0-3.4,23.993,23.993,0,0,1,.81-3c.79-2.89.64-6,1.76-8.79a.3.3,0,0,1,.08-.13c.14-.12.34.05.44.21,2.4,3.78,3.76,8.1,6,12C518.15,562.97,519.28,563.89,519.03,564.9Z" transform="translate(463 144.006)" opacity="0.05"/><path d="M517.34,565.13c-.18.32-.44.67-.8.64v-.32l.7-.14m-3.3,1.35c-.18.31-.44.67-.8.63v-.32l.71-.14m-1.43,8.27c-.18.31-.44.67-.8.64v-.32l.71-.15m-.15-2.52c-.18.32-.44.68-.8.64v-.32l.7-.14m-1.14-13.08c-.18.32-.44.68-.8.64v-.32l.7-.14m1.58,3.24c-.18.31-.44.67-.8.63v-.32l.71-.14m2.43-.42c-.18.31-.44.67-.8.64v-.32l.7-.14m-.72,7.27c-.1.2-.24.43-.44.4v-.2l.39-.08m-1.47,3.59c-.1.2-.24.42-.44.4v-.21l.39-.08m-.77-8.32c-.1.2-.24.43-.44.4v-.2l.4-.09m-1.17,4.81c.22,0,.49,0,.56.19l-.17.12-.26-.31m3.27-1.53c.22,0,.49,0,.56.2l-.17.11-.26-.3m-1.74-8.46c-.18.31-.44.67-.8.64v-.32l.7-.15m-.14-2.52c-.18.32-.44.68-.8.64v-.32l.71-.14m1.84-2.47c-.09.19-.23.42-.43.4v-.21l.39-.08m-1.47,3.61c-.1.2-.24.43-.44.4v-.21l.39-.08m-1.98-3.4c.22,0,.49,0,.56.19l-.17.12-.26-.3m3.27-1.54c.23,0,.49,0,.56.2l-.17.11-.26-.3m-.36,9.49c.22,0,.49,0,.56.2l-.17.11-.26-.3m-.72-5.87c.22,0,.49,0,.56.19l-.17.12-.26-.3" transform="translate(463 144.006)" opacity="0.2"/><path d="M445.94,564.9a4.28,4.28,0,0,1-.6,1.21c-.71,1.12-1.39,2.26-2.07,3.41l-.94,1.59a45.218,45.218,0,0,0-3,5.67,5.369,5.369,0,0,0-.44,1.6c0,.56,0,1.3-.55,1.49a4.329,4.329,0,0,1-1.23-1.64,8.441,8.441,0,0,1-.53-2.64l-1-10.36a14.329,14.329,0,0,1,0-3.4,28.2,28.2,0,0,1,.81-3c.79-2.89.64-6,1.76-8.79a.29.29,0,0,1,.08-.13c.14-.12.34.05.44.21,2.41,3.78,3.76,8.1,6,12,.41.85,1.54,1.77,1.27,2.78Z" transform="translate(463 144.006)" fill="#fed253"/><path d="M444.28,565.13c-.18.32-.45.67-.81.64v-.32l.71-.14m-3.3,1.35c-.19.31-.45.67-.81.63v-.32l.71-.14m-1.43,8.27c-.18.31-.44.67-.8.64v-.32l.71-.15m-.14-2.52c-.18.32-.44.68-.81.64v-.32l.71-.14m-1.19-13.08c-.18.32-.45.68-.81.64v-.32l.71-.14m1.62,3.24c-.18.31-.44.67-.8.63v-.32l.71-.14m2.44-.42c-.18.31-.45.67-.81.64v-.32l.71-.14m-.74,7.27c-.09.2-.24.43-.44.4v-.2l.39-.08m-1.46,3.59c-.1.2-.24.42-.44.4v-.21l.39-.08m-.77-8.32c-.1.2-.24.43-.44.4v-.2l.39-.09m-1.16,4.81c.22,0,.49,0,.56.19l-.17.12-.26-.31m3.27-1.53c.22,0,.49,0,.56.2l-.17.11-.26-.3m-1.73-8.46c-.18.31-.45.67-.81.64v-.32l.71-.15m-.14-2.52c-.18.32-.44.68-.8.64v-.32l.71-.14m1.84-2.47c-.1.19-.24.42-.44.4v-.21l.39-.08m-1.47,3.61c-.09.2-.23.43-.43.4v-.21l.39-.08m-1.98-3.4c.22,0,.48,0,.56.19l-.17.12-.26-.3m3.27-1.54c.22,0,.48,0,.56.2l-.17.11-.26-.3m-.37,9.49c.22,0,.49,0,.56.2l-.17.11-.26-.3m-.71-5.87c.22,0,.48,0,.56.19l-.17.12-.26-.3" transform="translate(463 144.006)" opacity="0.2"/><path d="M522.21,570.27a4.309,4.309,0,0,1-1,.91c-1.06.79-2.1,1.62-3.14,2.44l-1.45,1.16a44.2,44.2,0,0,0-4.83,4.23,5,5,0,0,0-1,1.33c-.24.51-.48,1.21-1,1.2a4.439,4.439,0,0,1-.57-2,8.681,8.681,0,0,1,.45-2.66l2.75-10a13.449,13.449,0,0,1,1.18-3.19,25.308,25.308,0,0,1,1.81-2.48c1.77-2.41,2.74-5.39,4.78-7.58a.29.29,0,0,1,.12-.1c.17-.06.3.17.33.36.91,4.39.63,8.91,1.32,13.32.12.98.85,2.24.25,3.06Z" transform="translate(463 144.006)" fill="#fed253"/><path d="M520.56,569.92c-.28.23-.65.47-1,.31l.08-.31.72.12m-3.52.09c-.28.23-.65.47-1,.31l.08-.31.72.12m-4.24,7.22c-.28.23-.65.48-1,.31l.08-.31.71.12m.83-2.39c-.28.23-.65.47-1,.31l.08-.31.72.12m3.6-12.63c-.29.23-.66.47-1,.31l.08-.31.71.12m.42,3.6c-.28.23-.66.47-1,.31l.08-.31.71.12m2.52.5c-.28.23-.65.47-1,.31l.09-.32.71.12m-3.28,6.55c-.16.15-.37.32-.55.22v-.2l.4.06m-2.58,2.84c-.16.16-.38.32-.55.22v-.2l.39.06m2.37-8.04c-.16.15-.37.31-.55.22l.05-.2.4.06m-2.83,4.08c.21.07.45.18.45.39h-.2l-.13-.37m3.6-.23c.21.07.45.18.45.38h-.2l-.13-.37m1.39-8.48c-.28.23-.65.48-1,.31l.08-.31.71.12m.83-2.39c-.28.23-.65.47-1,.31l.09-.31.71.12m2.65-1.63c-.17.15-.38.32-.56.22l.06-.2.39.06m-2.63,2.84c-.16.16-.37.32-.55.22v-.2l.4.06m-.57-3.88c.21.07.45.18.45.39h-.2l-.13-.38m3.6-.21c.21.07.45.18.46.38h-.21l-.13-.37m-3.75,8.77c.21.07.45.18.45.38l-.2.05-.14-.37m1.46-5.74c.21.07.45.18.45.38h-.2l-.13-.38" transform="translate(463 144.006)" opacity="0.2"/><path d="M512.61,560.09a4.39,4.39,0,0,1,.57,1.22c.44,1.25.91,2.49,1.39,3.73l.67,1.73a46,46,0,0,0,2.58,5.88,5.634,5.634,0,0,0,1,1.34c.42.38,1,.81.83,1.35a4.311,4.311,0,0,1-2.05-.05,9,9,0,0,1-2.41-1.22l-8.74-5.64a13.63,13.63,0,0,1-2.7-2.07,29.653,29.653,0,0,1-1.82-2.47c-1.77-2.41-4.32-4.24-5.8-6.84a.24.24,0,0,1,0-.14c0-.18.25-.23.43-.21,4.46.45,8.69,2.07,13.11,2.74.88.14,2.27-.17,2.94.65Z" transform="translate(463 144.006)" fill="#fed253"/><path d="M512.61,560.09a4.39,4.39,0,0,1,.57,1.22c.44,1.25.91,2.49,1.39,3.73l.67,1.73a46,46,0,0,0,2.58,5.88,5.634,5.634,0,0,0,1,1.34c.42.38,1,.81.83,1.35a4.311,4.311,0,0,1-2.05-.05,9,9,0,0,1-2.41-1.22l-8.74-5.64a13.63,13.63,0,0,1-2.7-2.07,29.653,29.653,0,0,1-1.82-2.47c-1.77-2.41-4.32-4.24-5.8-6.84a.24.24,0,0,1,0-.14c0-.18.25-.23.43-.21,4.46.45,8.69,2.07,13.11,2.74.88.14,2.27-.17,2.94.65Z" transform="translate(463 144.006)" opacity="0.05"/><path d="M511.74,561.55c.14.34.26.77,0,1l-.27-.17.33-.65m-.97,3.44c.13.33.25.76,0,1l-.27-.17.33-.65m5.62,6.25c.13.33.25.76,0,1l-.27-.17.32-.64m-2.04-1.46c.14.33.26.76,0,1l-.27-.17.33-.64m-10.98-7.18c.14.34.26.76,0,1l-.27-.17.33-.64m3.56.74c.13.34.25.77,0,1l-.28-.17.33-.65m1.22-2.18c.13.33.25.76,0,1l-.28-.17.33-.64m5.28,5.08c.09.2.18.45,0,.6l-.18-.11.18-.36m1.96,3.36c.1.2.19.45,0,.59l-.18-.11.18-.36m-6.94-4.57c.09.2.18.45,0,.59l-.18-.11.18-.36m3.1,3.88c.13-.18.31-.38.5-.32v.2h-.4m.82-3.5c.13-.18.3-.38.5-.32v.21h-.4m-7.73-3.87c.13.34.25.77,0,1l-.27-.17.33-.65m-2.05-1.45c.14.34.26.77,0,1l-.28-.17.33-.65m-.75-2.96c.09.2.18.45,0,.59l-.17-.11.17-.36m1.97,3.36c.09.2.18.45,0,.6l-.18-.11.18-.36m-3.84-.58c.12-.18.3-.38.5-.32v.21h-.4m.81-3.5c.13-.18.31-.38.5-.32v.24h-.4m7.2,6.15c.13-.18.31-.38.5-.32v.17h-.4m-5.04-3c.13-.18.31-.38.5-.32v.2h-.4" transform="translate(463 144.006)" opacity="0.2"/><path d="M496.11,549.48a4.39,4.39,0,0,1,.57,1.22c.44,1.25.91,2.5,1.39,3.74l.67,1.73a45.091,45.091,0,0,0,2.59,5.87,5.161,5.161,0,0,0,1,1.34c.42.38,1,.82.83,1.35a4.311,4.311,0,0,1-2.05-.05,8.5,8.5,0,0,1-2.4-1.22l-8.77-5.63a14.387,14.387,0,0,1-2.7-2.08,26.137,26.137,0,0,1-1.81-2.47c-1.78-2.41-4.32-4.23-5.81-6.83a.381.381,0,0,1,0-.15c0-.18.25-.23.43-.21,4.46.46,8.69,2.08,13.11,2.74.89.14,2.31-.18,2.95.65Z" transform="translate(463 144.006)" fill="#fed253"/><path d="M495.24,550.95c.14.33.26.76,0,1l-.27-.17.33-.65m-.97,3.43c.13.34.25.76,0,1l-.27-.17.33-.64m5.62,6.24c.13.34.25.76,0,1l-.27-.18.32-.64m-2.04-1.45c.14.34.26.76,0,1l-.28-.17.33-.64m-10.97-7.18c.14.34.26.77,0,1l-.28-.17.33-.65m3.57.74c.13.33.25.76,0,1l-.28-.17.33-.64m1.22-2.18c.13.34.25.76,0,1l-.28-.18.33-.64m5.28,5.1c.09.2.18.45,0,.59l-.18-.11.18-.36m1.96,3.36c.1.2.19.45,0,.59l-.18-.11.18-.36m-6.94-4.56c.09.19.18.45,0,.59l-.18-.11.18-.36m3.1,3.87c.13-.18.31-.38.5-.32v.21h-.4m.82-3.5c.13-.18.3-.38.5-.32v.2h-.4m-7.73-3.86c.14.33.25.76,0,1l-.27-.17.33-.64m-2.04-1.46c.13.33.25.76,0,1l-.28-.17.33-.65m-.76-2.97c.1.2.19.45,0,.59l-.17-.11.17-.35m1.97,3.36c.09.2.18.45,0,.59l-.18-.11.18-.36m-3.84-.58c.13-.17.3-.37.5-.31v.2h-.4m.81-3.5c.13-.18.31-.38.5-.32v.21h-.4m7.21,6.19c.13-.18.3-.38.5-.32v.2h-.4m-5.07-3.06c.13-.18.31-.38.5-.32v.21h-.4" transform="translate(463 144.006)" opacity="0.2"/><path d="M516.54,588.64H441.33a3.16,3.16,0,0,1-3.06-2.39l-4.33-17.27a3.16,3.16,0,0,1,3.06-3.91h83.85a3.15,3.15,0,0,1,3.06,3.91l-4.31,17.29a3.16,3.16,0,0,1-3.06,2.37Z" transform="translate(463 144.006)" fill="#3f3d56"/><path d="M516.54,588.64H441.33a3.16,3.16,0,0,1-3.06-2.39l-4.33-17.27a3.16,3.16,0,0,1,3.06-3.91h83.85a3.15,3.15,0,0,1,3.06,3.91l-4.31,17.29a3.16,3.16,0,0,1-3.06,2.37Z" transform="translate(463 144.006)" opacity="0.25"/><path d="M765.14,440.56c8-.8,15.17-5.37,21.82-10q12.69-8.78,24.79-18.36c2.18-1.71,4.46-3.64,5.15-6.32.62-2.41-.18-4.95-1-7.31q-5.91-17.32-12.36-34.45a57.289,57.289,0,0,0-12.84-22q-11.6-13.65-23.6-26.95c-7.39-8.18-9.32-20.21-13.83-30.27a7.3,7.3,0,0,0-1.9-2.88,6.64,6.64,0,0,0-3.9-1,44.431,44.431,0,0,0-17.53,2.78c-3.87,1.45-7.91,3.93-8.83,8-1,4.38,2.08,8.54,5,12a45.922,45.922,0,0,0,6.69,7c3.43,2.71,7.56,4.39,11.13,6.92a56.653,56.653,0,0,1,8,7.35c3.58,3.75,7.21,7.55,9.65,12.13,2.21,4.16,3.35,8.79,4.47,13.36l6.27,25.71,3.44,14.06a2.44,2.44,0,0,1-1.34,3.18,52.838,52.838,0,0,0-11.29,11.83,14.851,14.851,0,0,0-2.62,5.39,17,17,0,0,0,.16,5.78c1.2,8.25,2.76,15.91,4.47,24.05Zm-94.35-43.99a4.72,4.72,0,0,0,1.68,4.28,38.261,38.261,0,0,0,8.44,6.54,4.23,4.23,0,0,1,1.6,1.29,3.731,3.731,0,0,1,.43,1.47c1.16,8.75-2.4,17.47-7.06,25a65.37,65.37,0,0,1-10.35,12.95,52.272,52.272,0,0,1-11.71,8.36c-7.16,3.75-15.35,5.82-23.39,5s-15.88-4.84-20.61-11.39c-5.54-7.67-6.32-17.71-6.45-27.17-.09-5.64,0-11.51,2.6-16.54a10.74,10.74,0,0,1,3.79-4.43c2.38-1.45,5.4-1.5,7.79-2.93a7.76,7.76,0,0,0,3.67-5.75,4.159,4.159,0,0,1,.76-2.7,3.25,3.25,0,0,1,1.78-.69l19.6-3.33c7.08-1.19,14.29-2.39,21.49-1.83,2.38.19,5.88-.05,6.58,2.71s-.6,6.42-.64,9.16Z" transform="translate(463 144.006)" fill="#be6f72"/><path d="M670.79,396.57a4.72,4.72,0,0,0,1.68,4.28,38.261,38.261,0,0,0,8.44,6.54,4.23,4.23,0,0,1,1.6,1.29,3.731,3.731,0,0,1,.43,1.47c1.16,8.75-2.4,17.47-7.06,25a65.37,65.37,0,0,1-10.35,12.95,52.272,52.272,0,0,1-11.71,8.36c-7.16,3.75-15.35,5.82-23.39,5s-15.88-4.84-20.61-11.39c-5.54-7.67-6.32-17.71-6.45-27.17-.09-5.64,0-11.51,2.6-16.54a10.74,10.74,0,0,1,3.79-4.43c2.38-1.45,5.4-1.5,7.79-2.93a7.76,7.76,0,0,0,3.67-5.75,4.159,4.159,0,0,1,.76-2.7,3.25,3.25,0,0,1,1.78-.69l19.6-3.33c7.08-1.19,14.29-2.39,21.49-1.83,2.38.19,5.88-.05,6.58,2.71s-.6,6.42-.64,9.16Z" transform="translate(463 144.006)" opacity="0.05"/><path d="M658.82,758.76c3,5.08,7.48,9.11,10.64,14.08,1.91,3,3.32,6.84,1.94,10.14-1.16,2.76-4,4.43-6.71,5.64a46.771,46.771,0,0,1-23.62,3.65,17.169,17.169,0,0,1-4.31-.92c-4.46-1.71-7.17-6.24-8.92-10.68a23.7,23.7,0,0,0-2.29-4.95c-2-2.79-5.18-4.32-8-6.18s-5.64-4.58-5.69-8a22.1,22.1,0,0,1,.78-4.39c.5-2.69.18-5.46.23-8.19a29.929,29.929,0,0,1,1.65-9.18,4.86,4.86,0,0,1,1.49-2.43,5,5,0,0,1,2.17-.77,59.748,59.748,0,0,1,28.39,1.73c1.82.57,5.3,1.2,6.64,2.56,1.13,1.14,1,2.61,1.2,4.15a37.659,37.659,0,0,0,4.41,13.74Zm-64.97-17.12c1.44,10.4,2.9,20.85,6.12,30.84.56,1.73,1.16,3.64.43,5.3a6.12,6.12,0,0,1-2,2.24c-7.11,5.56-17.11,5.79-25.9,3.77a59.742,59.742,0,0,1-14.52-5.4,4.481,4.481,0,0,1-1.38-1,4.581,4.581,0,0,1-.86-1.95,53.46,53.46,0,0,1,4.58-38.1,16.059,16.059,0,0,1,3.66-4.92c2.21-1.83,5.09-2.55,7.87-3.22,6.37-1.53,13-3.79,19.47-4.6,1.88,5.06,1.79,11.67,2.53,17.04Z" transform="translate(463 144.006)" fill="#3f3d56"/><path d="M633.17,617.91c-14.7.51-29.15,4.26-43.86,4.59-7,.15-14.31-.59-20-4.59-4.63-3.24-7.64-8.25-10.51-13.12-2.3-3.9-4.62-7.86-5.93-12.21-2.3-7.65-1.28-15.86,0-23.75,1-6.14,2.38-12.77,7.08-16.85,2.82-2.46,6.5-3.66,10.09-4.72,17-5,34.59-8.1,52.1-11.16,5.2-.92,10.42-1.83,15.69-2.24a82.27,82.27,0,0,1,37.82,6c5.37,2.24,10.66,5.2,14.14,9.86,4.09,5.51,5.16,12.81,4.35,19.63s-3.32,13.29-5.81,19.69l-8,20.69c-1.69,4.36-2.77,12.17-8.12,13.15-5.1.94-13-2.84-18.13-3.64a134.517,134.517,0,0,0-20.91-1.33Z" transform="translate(463 144.006)" fill="#f95738"/><circle cx="40.07" cy="40.07" r="40.07" transform="translate(1066.86 468.076)" fill="#be6f72"/><path d="M641.02,448.62l17.39-19.82a59.169,59.169,0,0,1,4.94-5.2c2.46-2.19,5.36-4.07,6.89-7,2.39-4.57.72-10.15.5-15.2a2.64,2.64,0,0,1,1.24-2.47c1.15-.65,2,.12,2.92.56,2.23,1.06,5,.2,7.25,1.16,1.65.7,2.77,2.23,4.07,3.46s3.18,2.24,4.84,1.56c.86-.36,1.5-1.12,2.35-1.52,2.07-1,4.43.53,6.72.53,2,0,3.83-1.16,5.73-1.84a24.55,24.55,0,0,1,6.45-1l19.63-1.37c.38,14.55-2.63,29-6.13,43.12-3.56,14.38-7.19,28.95-14.38,41.91-3.14,5.65-6.95,11-8,17.68a16.11,16.11,0,0,0,.19,5.79,4.48,4.48,0,0,0,1,2.25c.93,6.76-.46,14.15-4.52,19.64-2.2,3-5,5.49-7,8.64s-3,7.31-1.14,10.54c-6.18,2-12.64-1.33-18.93-2.95-14-3.6-28.69,1.41-41.49,8.06-4.29,2.23-8.67,4.71-13.5,5-8.66.57-16.06-5.79-24.29-8.54-13.84-4.62-28.68,1.22-43,3.94-2,.39-4.32.68-6.1-.42s-2.58-3.45-2.8-5.6c-.83-8,3.52-15.49,5.8-23.2a46.84,46.84,0,0,0-3.4-34.16,30.8,30.8,0,0,1-3.22-19.35l.19-1.19,5.02-32.36a55.065,55.065,0,0,1,2.5-11.17c3-8.11,9.8-14.4,17.39-18.57s16-6.47,24.41-8.68a147.284,147.284,0,0,1,21.13-4.45c1-.11,2.22-.14,2.88.64a2.92,2.92,0,0,1,.54,1.74c.25,4-1.3,7.84-1.48,11.81-.24,5.66,2.32,11.07,5.38,15.84,5.87,9.1,12.76,16.56,22.03,22.19Z" transform="translate(463 144.006)" fill="#083d77"/><path d="M727.28,404.78c2.19-2.48,5.65-3.29,8.89-4l8.5-1.79a21.871,21.871,0,0,1,4.89-.65c1.21,0,2.4.24,3.6.22a18.349,18.349,0,0,0,5.36-1.15l15-4.83c-5,6.94-5.6,16-5.68,24.53a101.256,101.256,0,0,0,.38,11c.41,3.92,1.21,7.87.65,11.78-.64,4.53-3,9.44-.66,13.37,1.23,2.07,3.51,3.26,5.7,4.27a130.11,130.11,0,0,0-42.36,17.09c-3.09,1.94-6.15,4.05-9.65,5.09a34.566,34.566,0,0,1-6.94,1.07l-7.44.65c-1.28-17.73,4.21-35.16,9.63-52.09,1.42-4.41,2.83-8.83,4.56-13.14,1.53-3.83,2.8-8.28,5.57-11.42Z" transform="translate(463 144.006)" fill="#083d77"/><rect width="20.74" height="35.07" rx="8.8" transform="translate(1063.25 644.676)" fill="#083d77"/><path d="M608.68,503.25a4.65,4.65,0,0,0-2.63,1.09,5.633,5.633,0,0,1-.6.49,1.95,1.95,0,0,0-.72.73,16.048,16.048,0,0,0-.64,3.37c-.1.78-.22,1.48-.23,1.55a1.4,1.4,0,0,1-.41.4,12.34,12.34,0,0,0-4.45,6.17,6.391,6.391,0,0,1-.24.7c-.05.03-.5,2.7-.93,5.58-.4,2.65-.77,5.21-1.45,10.24-.64,4.79-.82,6.01-1.15,8.13-.13.8-.23,1.62-.23,1.85a7.351,7.351,0,0,0,1.44,4.23,10.534,10.534,0,0,0,1.85,1.87,9.83,9.83,0,0,0,3.67,1.66,9.479,9.479,0,0,0,2.72.03,7.069,7.069,0,0,0,2.74-1.2,8.579,8.579,0,0,0,1.8-2c.57-.89,2.28-4.26,4.42-8.67l1.2-2.47.27.4a7.23,7.23,0,0,0,10.28,1.92,7.87,7.87,0,0,0,2.38-2.77l.2-.4h7.83l.17.35a7.54,7.54,0,0,0,5.78,4.14,5.939,5.939,0,0,0,1.8-.03,7.54,7.54,0,0,0,3.42-1.43,8.159,8.159,0,0,0,1.77-1.93c.25-.4.35-.51.35-.37,0,.18,4.55,9.34,5.33,10.75a7.06,7.06,0,0,0,4.87,3.7,9.7,9.7,0,0,0,2.71-.02,9.41,9.41,0,0,0,4.95-2.82,7.479,7.479,0,0,0,1.32-1.98,6.509,6.509,0,0,0,.67-2.59,12.174,12.174,0,0,0-.35-3.06c-.12-.7-.55-3.75-.96-6.78l-.97-7.13q-.621-4.6-1.46-9.17l-.3-.82a12.17,12.17,0,0,0-4.85-6.4,1.029,1.029,0,0,1-.36-.32c-.01-.07-.1-.6-.17-1.16a29.515,29.515,0,0,0-.6-3.4,2.04,2.04,0,0,0-.8-.86,2.556,2.556,0,0,1-.48-.37,4.34,4.34,0,0,0-2.54-1.17,13.818,13.818,0,0,0-3.33.03,4.35,4.35,0,0,0-2.3,1.06,4.018,4.018,0,0,1-.53.44,2.211,2.211,0,0,0-.79.8,15.659,15.659,0,0,0-.57,3.08l-.26,1.74-.03.2h-6.45c-6.36,0-6.45,0-6.6.12s-.23.12-2.4.12-2.27,0-2.37-.12-.2-.12-6.64-.13l-6.54-.02-.1-.73a26.622,26.622,0,0,0-.77-4.3,2.231,2.231,0,0,0-.86-.83,1.258,1.258,0,0,1-.3-.26,4.121,4.121,0,0,0-1.14-.8,9.27,9.27,0,0,0-4.44-.43Z" transform="translate(463 144.006)" fill="#3f3d56"/><path d="M537.17,522.55c-.89,4.81-1.37,9.85,0,14.53s5.08,9,9.89,9.83c3.29.6,6.66-.4,9.7-1.8s5.89-3.2,9-4.33c6.73-2.42,14.27-1.57,21.05.7a57.176,57.176,0,0,0,6.59,2.07,36.482,36.482,0,0,0,5.91.54c7.42.29,14.95.57,22.18-1.13a13,13,0,0,0,5.66-2.52,12.67,12.67,0,0,0,3.39-5.83c1.75-5.45,2-11.78-1.15-16.57-2.28-3.49-6.1-5.75-10.1-7a54,54,0,0,0-12.37-1.73,11,11,0,0,0-10.43,3.59l-5.09,4.54a12.6,12.6,0,0,1-3.36,2.4,11.85,11.85,0,0,1-3.35.71,87.244,87.244,0,0,1-11.31.45c-.38-2.29,1-4.55.88-6.86a7.39,7.39,0,0,0-3.57-5.64,17.54,17.54,0,0,0-6.52-2.23c-5.12-.94-10.51-1.2-15.45.44C541.07,509.33,538.54,515.15,537.17,522.55Z" transform="translate(463 144.006)" fill="#be6f72"/><path d="M632.66,557.67c20.49-7.62,43.88-10.55,64-2,3.46,1.48,7.21,3.87,7.56,7.62.17,1.73-.45,3.43-.8,5.13-1.1,5.36.45,10.87.8,16.34s-1,11.8-5.86,14.38c-2.56,21.6-7.55,42.07-16.84,61.73a43.341,43.341,0,0,0-3.66,9.34c-.71,3.3-.56,6.72-.7,10.09-.43,10.27-3.57,20.21-6.68,30a37.678,37.678,0,0,1-2.38,6.19c-2.23,4.2-6,7.39-8.64,11.32s-4.18,9.46-1.52,13.36c1.58,2.3-4,3.75-6.81,3.8a313.334,313.334,0,0,1-36.63-1.5,3.69,3.69,0,0,1-4-3.42c-1.2-4.25-2.38-8.81-1-13,.74-2.22,2.2-4.29,2.15-6.63,0-2-1.22-3.88-1.7-5.87-1.47-6.13,3.75-11.56,7.59-16.56,8-10.46,11.18-23.76,14.07-36.63q5.67-25.19,11.07-50.44c-3.1,2.44-2.76,6.5-5.74,9.08-3.52,3-9.42,1.12-12-2.7s-2.84-8.78-2.73-13.43c.33-15.47,5.06-31.69,10.45-46.2Zm-27.18,5.67c-4.94-12.14-16.54-21.69-29.54-22.81s-26.73,7.14-30.59,19.66a49.9,49.9,0,0,0-1.64,9.18c-3.47,31-3.47,62.85,4.24,93.12,1.58,6.24,3.5,12.44,4.06,18.84s-.38,13.19-4.06,18.47c-1,1.48-2.3,2.88-2.79,4.62-.57,2-.06,4.08.46,6.08l6.47,25.19a9.82,9.82,0,0,0,2,4.42c1.89,2,5,2.09,7.79,1.81a59.821,59.821,0,0,0,21.06-6.17c6-3.07,12.16-8.36,11.8-15.12-.09-1.69-.59-3.44,0-5a10.82,10.82,0,0,1,2.37-3c3.51-3.9,4.31-9.65,3.36-14.8s-3.45-9.88-5.91-14.5.54-10.67,1.33-15.7c2.74-17.42-2.9-35.7,2-52.64,3.6,3.13,9.26,5.27,12.93,2.23,3.27-2.72,2.88-7.76,2.2-12-2.28-14.01-2.2-28.74-7.54-41.88Z" transform="translate(463 144.006)" fill="#f95738"/><path d="M608.86,368.14c1.31,1.32,1.71,3.8,3.29,4.6s3.63-.89,4.57-2.83c1.56-3.2,1.85-7,2-10.72s.29-7.49,1.55-10.87,4-6.3,7.12-6.2c2.06.07,3.91,1.39,5.72,2.55a51,51,0,0,0,17.44,7.14c1.78.35,3.67.59,5.31-.29a4.45,4.45,0,0,0,2-5.19c4.29-1,9,2.71,9.8,7.81.25,1.59.17,3.24.38,4.85.65,5,4.49,9.2,8.77,9.56a4,4,0,0,0,2.39-.44c1.15-.7,1.77-2.17,2.32-3.55,2.3-5.75,4.63-11.64,5.17-18a66.963,66.963,0,0,0-.25-10.87c-.35-4.44-.75-9.06-2.71-12.86-3-5.86-9-8.42-14.54-10.42s-11.33-3.9-17.05-5.61a75.332,75.332,0,0,0-16.53-3.46A44,44,0,0,0,608,311.13a29.58,29.58,0,0,0-8.73,8.71,20,20,0,0,0-3,12.79c.46,3.48,2,6.62,2.79,10,1.28,5.51.51,11.36-.09,17a16.351,16.351,0,0,0,.26,6.8c.73,2.23,2.5,3.91,4.36,2.82,1.79-.91,3.23-3.15,5.27-1.11Z" transform="translate(463 144.006)" fill="#3f3d56"/><path d="M540.35,479.97a65.58,65.58,0,0,0-1.75,9.82c-.17,2.25-.1,4.5-.29,6.75-.71,8.37-4.88,16.33-4.52,24.73a15,15,0,0,1,8.24-1.21c-.74-2.58,1.13-5.35,3.56-6.49s5.24-1.07,7.92-.88c7.5.53,15,1.76,21.85,4.94a1.16,1.16,0,0,0,1,.15c.43-.21.42-.81.42-1.28-.06-4.08,4.22-6.91,5.24-10.86.73-2.85-.34-5.81-1.12-8.65-3-10.68-1.84-22-2.72-33.06-.5-6.26-2-13-6.84-17a15,15,0,0,0-15.75-1.48c-11.57,5.73-12.72,23.58-15.24,34.52Z" transform="translate(463 144.006)" fill="#083d77"/><path d="M170.34,440.56c-8-.8-15.17-5.37-21.82-10q-12.69-8.78-24.8-18.36c-2.17-1.71-4.45-3.64-5.14-6.32-.62-2.41.18-4.95,1-7.31q5.89-17.3,12.36-34.43a76.27,76.27,0,0,1,5.67-12.56,75.2,75.2,0,0,1,7.17-9.44q11.6-13.65,23.6-26.95c7.39-8.18,9.31-20.21,13.83-30.27a7.09,7.09,0,0,1,1.9-2.88,6.64,6.64,0,0,1,3.9-1,44.43,44.43,0,0,1,17.53,2.81c3.87,1.45,7.91,3.93,8.83,8,1,4.38-2.08,8.54-5,12a46.409,46.409,0,0,1-6.69,7c-3.44,2.71-7.56,4.39-11.13,6.92a57.281,57.281,0,0,0-8,7.35c-3.58,3.75-7.2,7.55-9.64,12.13-2.21,4.16-3.35,8.79-4.47,13.36l-6.28,25.66-3.44,14.06a2.45,2.45,0,0,0,1.33,3.18,52.661,52.661,0,0,1,11.3,11.83,14.85,14.85,0,0,1,2.62,5.39,17,17,0,0,1-.16,5.78q-1.85,12.093-4.47,24.05Zm94.35-43.99a6.2,6.2,0,0,1-.28,2.35,5.93,5.93,0,0,1-1.41,1.93,38.44,38.44,0,0,1-8.43,6.54,4.27,4.27,0,0,0-1.61,1.29,3.721,3.721,0,0,0-.42,1.47c-1.16,8.75,2.4,17.47,7.06,25a65.318,65.318,0,0,0,10.34,12.92,52.33,52.33,0,0,0,11.72,8.36c7.16,3.75,15.35,5.82,23.39,5s15.88-4.84,20.61-11.39c5.54-7.67,6.32-17.71,6.45-27.17.09-5.64,0-11.51-2.6-16.54a10.74,10.74,0,0,0-3.79-4.43c-2.38-1.45-5.4-1.5-7.79-2.93a7.76,7.76,0,0,1-3.67-5.75,4.16,4.16,0,0,0-.76-2.7,3.25,3.25,0,0,0-1.78-.69l-19.6-3.33c-7.08-1.19-14.29-2.39-21.49-1.83-2.39.19-5.89-.05-6.58,2.71s.6,6.45.64,9.19Z" transform="translate(463 144.006)" fill="#fbbebe"/><path d="M264.69,396.57a6.2,6.2,0,0,1-.28,2.35,5.93,5.93,0,0,1-1.41,1.93,38.44,38.44,0,0,1-8.43,6.54,4.27,4.27,0,0,0-1.61,1.29,3.721,3.721,0,0,0-.42,1.47c-1.16,8.75,2.4,17.47,7.06,25a65.318,65.318,0,0,0,10.34,12.92,52.33,52.33,0,0,0,11.72,8.36c7.16,3.75,15.35,5.82,23.39,5s15.88-4.84,20.61-11.39c5.54-7.67,6.32-17.71,6.45-27.17.09-5.64,0-11.51-2.6-16.54a10.74,10.74,0,0,0-3.79-4.43c-2.38-1.45-5.4-1.5-7.79-2.93a7.76,7.76,0,0,1-3.67-5.75,4.16,4.16,0,0,0-.76-2.7,3.25,3.25,0,0,0-1.78-.69l-19.6-3.33c-7.08-1.19-14.29-2.39-21.49-1.83-2.39.19-5.89-.05-6.58,2.71s.6,6.45.64,9.19Z" transform="translate(463 144.006)" opacity="0.05"/><path d="M276.66,758.76c-3,5.08-7.48,9.11-10.64,14.08-1.92,3-3.33,6.84-1.94,10.14,1.16,2.76,4,4.43,6.71,5.64a46.749,46.749,0,0,0,23.61,3.65,17.16,17.16,0,0,0,4.32-.92c4.46-1.71,7.17-6.24,8.92-10.68a23.7,23.7,0,0,1,2.29-4.95c1.95-2.79,5.18-4.32,8-6.18s5.64-4.58,5.69-8a22.1,22.1,0,0,0-.78-4.39c-.5-2.69-.18-5.46-.24-8.19a29.621,29.621,0,0,0-1.64-9.18,4.86,4.86,0,0,0-1.49-2.43,5,5,0,0,0-2.17-.77,59.75,59.75,0,0,0-28.36,1.77c-1.82.57-5.3,1.2-6.65,2.56-1.12,1.14-1,2.61-1.19,4.15a37.66,37.66,0,0,1-4.44,13.7Zm64.96-17.12c-1.44,10.4-2.89,20.85-6.11,30.84-.56,1.73-1.16,3.64-.43,5.3a6.12,6.12,0,0,0,2,2.24c7.11,5.56,17.11,5.79,25.9,3.77a59.742,59.742,0,0,0,14.52-5.4,4.481,4.481,0,0,0,1.38-1,4.58,4.58,0,0,0,.86-1.95,53.46,53.46,0,0,0-4.58-38.1,15.931,15.931,0,0,0-3.67-4.92c-2.2-1.83-5.08-2.55-7.86-3.22-6.37-1.53-13-3.79-19.48-4.6-1.87,5.06-1.78,11.67-2.53,17.04Z" transform="translate(463 144.006)" fill="#3f3d56"/><path d="M302.31,617.91c14.7.51,29.15,4.26,43.86,4.59,7,.15,14.3-.59,20-4.59,4.63-3.24,7.64-8.25,10.5-13.12,2.31-3.9,4.63-7.86,5.94-12.21,2.3-7.65,1.28-15.86,0-23.75-1-6.14-2.38-12.77-7.08-16.85-2.83-2.46-6.5-3.66-10.09-4.72-17-5-34.59-8.1-52.1-11.16-5.2-.92-10.42-1.83-15.69-2.24a82.27,82.27,0,0,0-37.82,6c-5.37,2.24-10.66,5.2-14.14,9.86-4.1,5.51-5.16,12.81-4.35,19.63s3.32,13.29,5.81,19.69l8,20.69c1.69,4.36,2.77,12.17,8.11,13.15,5.11.94,13-2.84,18.14-3.64a134.512,134.512,0,0,1,20.91-1.33Z" transform="translate(463 144.006)" fill="#e3e8f4"/><circle cx="40.07" cy="40.07" r="40.07" transform="translate(714.49 468.076)" fill="#fbbebe"/><path d="M294.46,448.62,277.07,428.8a59.169,59.169,0,0,0-4.94-5.2c-2.46-2.19-5.36-4.07-6.89-7-2.39-4.57-.73-10.15-.5-15.2a2.64,2.64,0,0,0-1.24-2.47c-1.15-.65-2,.12-2.93.56-2.22,1.06-5,.2-7.24,1.16-1.65.7-2.77,2.23-4.07,3.46s-3.19,2.24-4.84,1.56c-.87-.36-1.51-1.12-2.35-1.52-2.07-1-4.44.53-6.72.53-2,0-3.83-1.16-5.74-1.84a24.478,24.478,0,0,0-6.44-1l-19.68-1.35c-.37,14.55,2.64,29,6.14,43.12,3.56,14.38,7.19,28.95,14.38,41.91,3.14,5.65,6.95,11,8,17.68a16.34,16.34,0,0,1-.19,5.79,4.48,4.48,0,0,1-1,2.25c-.94,6.76.46,14.15,4.51,19.64,2.21,3,5,5.49,7,8.64s3,7.31,1.14,10.54c6.18,2,12.64-1.33,18.93-2.95,14-3.6,28.69,1.41,41.48,8.06,4.3,2.23,8.68,4.71,13.51,5,8.66.57,16.06-5.79,24.29-8.54,13.84-4.62,28.67,1.22,43,3.94,2.05.39,4.32.68,6.1-.42s2.58-3.45,2.8-5.6c.83-8-3.52-15.49-5.8-23.2a46.79,46.79,0,0,1,3.4-34.16,30.86,30.86,0,0,0,3.22-19.35l-.19-1.19-4.97-32.38a55.759,55.759,0,0,0-2.5-11.17c-3.05-8.11-9.8-14.4-17.39-18.57s-16-6.47-24.41-8.68a147.271,147.271,0,0,0-21.13-4.45c-1-.11-2.22-.14-2.88.64a2.92,2.92,0,0,0-.54,1.74c-.25,4,1.3,7.84,1.47,11.81.25,5.66-2.31,11.07-5.38,15.84-5.86,9.1-12.75,16.56-22.02,22.19Z" transform="translate(463 144.006)" fill="#083d77"/><path d="M208.2,404.78c-2.19-2.48-5.66-3.29-8.89-4l-8.5-1.79a22,22,0,0,0-4.9-.65c-1.2,0-2.39.24-3.59.22a18.348,18.348,0,0,1-5.36-1.15l-15-4.83c5,6.94,5.6,16,5.68,24.53a98.816,98.816,0,0,1-.39,11c-.4,3.92-1.2,7.87-.64,11.78.64,4.53,3,9.44.66,13.37-1.24,2.07-3.51,3.26-5.7,4.27a130.108,130.108,0,0,1,42.37,17.14c3.09,1.94,6.15,4.05,9.65,5.09a34.569,34.569,0,0,0,6.94,1.07l7.44.65c1.28-17.73-4.21-35.16-9.63-52.09-1.42-4.41-2.83-8.83-4.56-13.14-1.54-3.88-2.84-8.33-5.58-11.47Z" transform="translate(463 144.006)" fill="#083d77"/><path d="M298.82,512.05c-.14.34-.26.77,0,1l.28-.17-.33-.65m.96,3.44c-.14.33-.26.76,0,1l.27-.17-.33-.64m-5.62,6.24c-.13.34-.25.76,0,1l.27-.17-.33-.64m2.05-1.46c-.14.34-.26.76,0,1l.28-.17-.33-.64m10.95-7.18c-.14.34-.26.77,0,1l.28-.17-.33-.65m-3.55.74c-.13.33-.25.76,0,1l.27-.17-.32-.65m-1.22-2.17c-.13.34-.25.76,0,1l.27-.17-.32-.64m-5.28,5.09c-.09.2-.18.45,0,.59l.17-.11-.17-.36m-1.97,3.36c-.09.2-.18.45,0,.59l.18-.11-.18-.36m6.95-4.57c-.09.2-.18.46,0,.6l.18-.11-.18-.36m-3.11,3.87c-.12-.18-.3-.38-.5-.32v.21h.4m-.81-3.5c-.13-.18-.31-.38-.5-.32v.2h.4m7.73-3.87c-.14.34-.26.77,0,1l.28-.17-.33-.65m2.03-1.45c-.13.34-.25.77,0,1l.27-.17-.32-.65m.76-2.96c-.1.2-.19.45,0,.59l.17-.11-.17-.35m-1.97,3.36c-.1.2-.19.45,0,.59l.17-.11-.17-.36m3.89-.58c-.13-.17-.31-.37-.5-.31v.2h.4m-.9-3.5c-.13-.18-.31-.38-.5-.32v.21h.4m-7.17,6.18c-.13-.17-.31-.37-.5-.31v.2h.4m5.07-3.06c-.13-.18-.31-.38-.5-.32v.21h.4m-4.19,2.77c-.13.34-.25.77,0,1l.27-.17-.33-.65m.97,3.43c-.13.34-.25.77,0,1l.28-.17-.33-.65m-5.62,6.26c-.14.33-.26.76,0,1l.28-.17-.33-.64m2.03-1.46c-.13.33-.25.76,0,1l.27-.17-.33-.64m10.98-7.18c-.13.34-.25.76,0,1l.27-.17-.33-.64m-3.55.72c-.14.34-.26.77,0,1l.28-.17-.33-.65m-1.22-2.16c-.14.33-.26.76,0,1l.28-.17-.33-.64m-5.28,5.08c-.1.2-.19.45,0,.6l.18-.11-.18-.36m-1.97,3.36c-.1.2-.19.45,0,.59l.17-.11-.17-.36m6.95-4.57c-.1.2-.19.45,0,.59l.17-.11-.18-.36m-3.1,3.88c-.13-.18-.31-.38-.5-.32v.2h.4m-.81-3.5c-.13-.18-.31-.38-.5-.32v.21h.4m7.72-3.87c-.13.34-.25.77,0,1l.27-.17-.32-.65m2.04-1.45c-.14.34-.26.77,0,1l.27-.17-.33-.65m.76-2.96c-.09.2-.18.45,0,.59l.18-.11-.18-.36m-1.96,3.36c-.1.2-.19.45,0,.6l.18-.11-.18-.36m3.84-.58c-.13-.18-.31-.38-.5-.32v.21h.4m-.81-3.5c-.13-.18-.31-.38-.51-.32v.21h.4m-7.2,6.17c-.13-.18-.31-.38-.5-.32v.21h.4m5.06-3.05c-.13-.18-.31-.38-.5-.32v.2h.4m-31.29-3.11c-.13.33-.25.76,0,1l.27-.17-.33-.64m.97,3.42c-.13.34-.25.76,0,1l.28-.17-.33-.64m-5.62,6.24c-.14.34-.26.76,0,1l.28-.18-.33-.64m2.03-1.45c-.13.34-.25.76,0,1l.27-.18-.33-.64m11-7.17c-.13.34-.25.77,0,1l.27-.17-.33-.65m-3.57.74c-.14.33-.26.76,0,1l.28-.17-.33-.64m-1.22-2.18c-.14.34-.26.77,0,1l.28-.17-.33-.65m-5.28,5.1c-.1.2-.19.45,0,.59l.18-.11-.18-.36m-1.97,3.36c-.1.2-.19.45,0,.59l.17-.11-.17-.35m6.95-4.57c-.1.2-.19.45,0,.59l.17-.11-.18-.36m-3.1,3.87c-.13-.18-.31-.38-.5-.32v.21h.4m-.81-3.52c-.13-.18-.31-.38-.5-.32v.2h.4m7.72-3.88c-.13.33-.25.76,0,1l.27-.17-.32-.64m2.04-1.42c-.14.33-.26.76,0,1l.27-.17-.33-.64m.72-2.96c-.09.2-.18.45,0,.6l.18-.11-.18-.36m-1.92,3.34c-.1.2-.19.45-.05.59l.18-.11-.18-.36m3.89-.59c-.13-.18-.31-.38-.5-.32v.2h.4m-.82-3.48c-.13-.18-.31-.38-.51-.32v.21h.4m-7.19,6.19c-.13-.18-.31-.38-.5-.32v.2h.4m5.06-3.06c-.13-.18-.31-.38-.5-.32v.21h.4m9.96-4.3c-.14.34-.25.77,0,1l.27-.17-.33-.65m.97,3.44c-.13.33-.25.76,0,1l.27-.17-.32-.65m-5.63,6.25c-.13.33-.25.76,0,1l.27-.17-.32-.64m2.04-1.46c-.14.33-.26.76,0,1l.27-.17-.33-.64m10.98-7.18c-.14.34-.26.76,0,1l.27-.18-.33-.64m-3.55.73c-.14.34-.26.77,0,1l.28-.17-.33-.65m-1.23-2.16c-.13.33-.25.76,0,1l.28-.17-.33-.64m-5.28,5.08c-.09.2-.18.45,0,.6l.18-.11-.18-.36m-1.96,3.36c-.1.2-.19.45-.05.59l.18-.11-.18-.36m7-4.57c-.1.2-.19.45-.05.59l.18-.11-.18-.35m-3.06,3.87c-.13-.18-.31-.38-.5-.32v.2h.4m-.81-3.5c-.13-.18-.31-.38-.51-.32v.21h.4m7.7-3.87c-.13.34-.25.77,0,1l.27-.17-.33-.65m2.06-1.45c-.14.34-.26.77,0,1l.28-.17-.33-.65m.77-2.96c-.09.2-.18.45,0,.59l.17-.11-.17-.36m-1.97,3.36c-.09.2-.18.45,0,.6l.18-.11-.18-.36m3.85-.58c-.13-.18-.31-.38-.51-.32v.21h.4m-.81-3.5c-.13-.18-.31-.38-.5-.32v.21h.39m-7.19,6.18c-.13-.18-.31-.38-.5-.32v.21h.4m5.06-3.06c-.13-.18-.31-.38-.5-.32v.2h.4m-11.24-1.93c-.13.33-.25.76,0,1l.28-.17-.33-.65m.95,3.43c-.14.33-.26.76,0,1l.28-.17-.33-.64m-5.63,6.24c-.14.34-.26.76,0,1l.28-.17-.33-.64m2.03-1.46c-.13.34-.25.76,0,1l.27-.17-.32-.64m10.97-7.18c-.13.34-.25.77,0,1l.27-.17-.32-.65m-3.56.74c-.13.33-.25.76,0,1l.27-.17-.33-.64m-1.21-2.18c-.14.34-.25.76,0,1l.27-.18-.33-.64m-5.27,5.1c-.1.2-.19.45,0,.59l.09-.12-.17-.36m-1.89,3.36c-.09.2-.19.45,0,.59l.17-.11-.17-.36m6.95-4.55c-.1.19-.19.45,0,.59l.17-.11-.17-.36m-3.11,3.87c-.13-.18-.31-.38-.5-.32v.21h.39m-.8-3.45c-.13-.18-.31-.38-.5-.32v.2h.4m7.73-3.88c-.14.33-.26.76,0,1l.28-.17-.33-.65m2.03-1.48c-.13.33-.25.76,0,1l.27-.17-.33-.65m.77-2.97c-.1.2-.19.45-.05.59l.18-.11-.18-.35m-1.92,3.36c-.1.2-.19.45,0,.59l.17-.11-.18-.36m3.85-.58c-.13-.17-.31-.37-.5-.31v.2h.4m-.81-3.5c-.13-.18-.31-.38-.5-.32v.21h.4m-7.21,6.19c-.13-.18-.31-.38-.5-.32v.2h.4m5.06-3.06c-.13-.18-.3-.38-.5-.32v.21h.4m-6.54-16.12c-.13.33-.25.76,0,1l.27-.17-.32-.64m.96,3.46c-.13.34-.25.76,0,1l.28-.17-.33-.64m-5.62,6.24c-.14.34-.26.76,0,1l.28-.18-.33-.64m2.03-1.45c-.13.34-.25.76,0,1l.27-.18-.33-.64m10.98-7.17c-.13.34-.25.77,0,1l.27-.17-.33-.65m-3.55.74c-.14.33-.26.76,0,1l.27-.17-.33-.64m-1.21-2.18c-.14.34-.26.77,0,1l.28-.17-.33-.65m-5.28,5.07c-.1.2-.19.45,0,.59l.17-.11-.18-.36m-1.96,3.39c-.1.2-.19.45,0,.59l.17-.11-.17-.35m6.95-4.57c-.1.2-.19.45,0,.59l.17-.11-.17-.36m-3.07,3.87c-.13-.18-.31-.38-.5-.32v.26h.4m-.85-3.55c-.13-.18-.31-.38-.5-.32v.2h.4m7.72-3.86c-.13.33-.25.76,0,1l.28-.17-.33-.64m2.04-1.46c-.14.33-.26.76,0,1l.27-.17-.33-.64m.76-2.98c-.09.2-.18.45,0,.6l.18-.11-.18-.36m-1.96,3.36c-.1.2-.19.45,0,.59l.18-.11-.18-.36m3.84-.57c-.13-.18-.31-.38-.5-.32v.2h.4m-.81-3.5c-.13-.18-.31-.38-.5-.32v.21h.4m-7.23,6.19c-.13-.18-.31-.38-.5-.32v.2h.4m5.1-3.06c-.13-.18-.31-.38-.5-.32v.21h.39m-15.98,27.52c-.13.34-.25.77,0,1l.27-.17-.32-.65m.97,3.43c-.14.34-.26.77,0,1l.28-.17-.33-.65m-5.63,6.26c-.14.33-.26.76,0,1l.28-.17-.33-.64m2.03-1.46c-.13.33-.25.76,0,1l.27-.17-.32-.64m10.97-7.18c-.13.34-.25.76,0,1l.27-.17-.32-.64m-3.56.72c-.14.34-.26.77,0,1l.27-.17-.33-.65m-1.21-2.16c-.14.33-.26.76,0,1l.27-.17-.33-.64m-5.27,5.08c-.1.2-.19.45,0,.6l.17-.11-.18-.36m-1.96,3.36c-.1.2-.19.45,0,.59l.17-.11-.17-.36m6.95-4.57c-.1.2-.19.45,0,.59l.17-.11-.17-.36m-3.11,3.88c-.13-.18-.31-.38-.5-.32v.2h.4m-.81-3.5c-.13-.18-.31-.38-.5-.32v.21h.4" transform="translate(463 144.006)" opacity="0.2"/><path d="M292.36,515.84c-.13.34-.25.77,0,1l.28-.17-.33-.65m2.04-1.45c-.14.34-.25.77,0,1l.27-.17-.33-.65m.77-2.96c-.1.2-.19.45-.05.59l.18-.11-.18-.36m-1.92,3.36c-.1.2-.19.45,0,.6l.17-.11-.18-.36m3.86-.58c-.13-.18-.31-.38-.5-.32v.21h.4m-.82-3.5c-.13-.18-.31-.38-.5-.32v.21h.4m-7.21,6.17c-.13-.18-.31-.38-.5-.32v.21h.4m5.06-3.05c-.13-.18-.31-.38-.5-.32v.2h.4m12.37-11.36c-.14.33-.26.76,0,1l.28-.17-.33-.64m.91,3.45c-.13.34-.25.76,0,1l.27-.18-.33-.64m-5.62,6.22c-.13.34-.25.77,0,1l.27-.17-.33-.65m2.05-1.45c-.14.34-.26.76,0,1l.28-.18-.33-.64m10.97-7.17c-.14.34-.26.77,0,1l.28-.17-.33-.65m-3.57.74c-.13.33-.25.76,0,1l.27-.17-.32-.64m-1.22-2.18c-.13.34-.25.77,0,1l.27-.17-.32-.65m-5.28,5.1c-.09.2-.18.45,0,.59l.18-.11-.18-.36m-1.97,3.36c-.09.2-.18.45,0,.59l.18-.11-.18-.35m6.95-4.57c-.09.2-.18.45,0,.59l.18-.11-.18-.36m-3.1,3.87c-.13-.18-.31-.38-.5-.32v.21h.4m-.82-3.5c-.13-.18-.3-.38-.5-.32v.2h.4m7.73-3.86c-.14.33-.26.76,0,1l.27-.17-.33-.64m2.04-1.46c-.13.33-.25.76,0,1l.28-.17-.33-.64m.76-2.98c-.1.2-.19.45,0,.6l.17-.11-.17-.36m-1.97,3.36c-.09.2-.18.45,0,.59l.17-.11-.17-.36m3.82-.57c-.13-.18-.3-.38-.5-.32v.2h.4m-.79-3.5c-.13-.18-.31-.38-.5-.32v.17h.4m-7.21,6.23c-.13-.18-.3-.38-.5-.32v.2h.4m5.07-3.06c-.13-.18-.31-.38-.5-.32v.21h.4m6.04,9.84c.13.34.25.77,0,1l-.28-.17.33-.65m-.97,3.44c.14.33.26.76,0,1l-.28-.17.33-.64m5.63,6.24c.14.34.26.76,0,1l-.27-.17.33-.64m-2.04-1.46c.13.34.25.76,0,1l-.28-.17.33-.64m-10.97-7.18c.13.34.25.77,0,1l-.28-.17.33-.65m3.56.74c.13.33.25.76,0,1l-.27-.17.33-.65m1.21-2.17c.13.34.25.76,0,1l-.27-.17.33-.64m5.27,5.09c.1.2.19.45,0,.59l-.17-.11.17-.36m1.97,3.36c.09.2.18.45,0,.59l-.17-.11.17-.36m-6.95-4.57c.09.2.18.46,0,.6l-.17-.11.17-.36m3.11,3.87c.13-.18.3-.38.5-.32v.21h-.41m.82-3.5c.13-.18.31-.38.5-.32v.2h-.4m-7.73-3.87c.14.34.26.77,0,1l-.28-.17.33-.65m-2.03-1.45c.13.34.25.77,0,1l-.27-.17.33-.65m-.77-2.96c.1.2.19.45,0,.59l-.17-.11.18-.35m1.96,3.36c.1.2.19.45,0,.59l-.17-.11.17-.36m-3.84-.58c.13-.17.31-.37.5-.31v.2h-.4m.81-3.5c.13-.18.31-.38.5-.32v.21h-.4m7.21,6.18c.13-.17.31-.37.5-.31v.2h-.4m-5.07-3.06c.13-.18.31-.38.51-.32v.21h-.39m4.17,2.77c.13.34.25.77,0,1l-.27-.17.33-.65m-.97,3.43c.13.34.25.77,0,1l-.27-.17.32-.65m5.63,6.26c.13.33.25.76,0,1l-.28-.17.33-.64m-1.99-1.46c.13.33.25.76,0,1l-.27-.17.33-.64m-11.06-7.18c.13.34.25.76,0,1l-.27-.17.33-.64m3.58.72c.14.34.26.77,0,1l-.28-.17.33-.65m1.22-2.16c.14.33.26.76,0,1l-.28-.17.33-.64m5.28,5.08c.1.2.19.45.05.6l-.18-.11.18-.36m1.92,3.36c.1.2.19.45,0,.59l-.17-.11.18-.36m-6.96-4.57c.1.2.19.45.05.59l-.18-.11.18-.36m3.06,3.88c.13-.18.31-.38.5-.32v.2h-.4m.81-3.5c.13-.18.31-.38.5-.32v.21h-.4m-7.72-3.87c.13.34.25.77,0,1l-.27-.17.33-.65m-2.05-1.45c.14.34.26.77,0,1l-.28-.17.33-.65m-.72-2.96c.09.2.18.45,0,.59l-.18-.11.18-.36m1.94,3.36c.09.2.18.45,0,.6l-.18-.11.18-.36m-3.85-.58c.13-.18.31-.38.5-.32v.21h-.4m.81-3.5c.13-.18.3-.38.5-.32v.21h-.4m7.21,6.17c.13-.18.31-.38.5-.32v.21h-.4m-5.06-3.05c.13-.18.31-.38.5-.32v.2h-.4m20.68-6.65c.14.34.26.76,0,1l-.28-.18.33-.64m-.96,3.43c.13.34.25.77,0,1l-.27-.17.33-.65m5.62,6.26c.13.33.25.76,0,1l-.27-.17.33-.65m-2.05-1.45c.14.33.26.76,0,1l-.28-.17.33-.65m-10.96-7.17c.14.33.26.76,0,1l-.28-.17.33-.64m3.56.72c.13.34.25.76,0,1l-.27-.17.32-.65m1.22-2.16c.13.33.25.76,0,1l-.27-.17.32-.64m5.28,5.08c.09.2.18.45,0,.59l-.17-.11.17-.35m1.97,3.36c.09.2.18.45,0,.59l-.18-.14.18-.36m-6.95-4.54c.09.2.18.45,0,.59l-.18-.11.18-.36m3.1,3.87c.13-.17.31-.37.5-.31v.2h-.4m.82-3.5c.13-.18.31-.38.5-.32v.21h-.4m-7.73-3.87c.14.34.26.76,0,1l-.27-.18.33-.64" transform="translate(463 144.006)" opacity="0.2"/><path d="M864.77,310.58V272h-6v38.6a8,8,0,1,0,6,0Z" transform="translate(463 144.006)" fill="#e6e6e6"/><path d="M320.58,507.5c.13.34.25.76,0,1l-.28-.18.33-.64m-.76-2.96c.1.2.19.45,0,.59l-.17-.11.17-.36m1.97,3.36c.09.2.18.45,0,.59l-.17-.11.17-.35m-3.84-.58c.13-.18.31-.38.5-.32v.21h-.4m.84-3.5c.13-.18.31-.38.5-.32v.2h-.4m7.18,6.19c.13-.18.3-.38.5-.32v.21h-.4m-5.07-3.06c.13-.18.31-.38.5-.32v.2h-.4m-35.88,1.6c.13.34.25.76,0,1l-.27-.17.33-.64m-.97,3.42c.13.34.25.77,0,1l-.28-.17.33-.65m5.62,6.25c.14.34.26.77,0,1l-.28-.17.33-.65m-2.03-1.47c.13.34.25.77,0,1l-.27-.17.33-.65m-10.98-7.18c.13.33.25.76,0,1l-.27-.17.33-.64m3.55.81c.14.34.26.76,0,1l-.28-.17.33-.64m1.22-2.19c.14.34.26.77,0,1l-.28-.17.33-.65m5.28,5.06c.1.2.19.45,0,.59l-.18-.11.18-.36m1.97,3.37c.1.19.19.45,0,.59l-.17-.11.17-.36m-6.95-4.57c.1.2.19.45,0,.59l-.17-.11.18-.36m3.1,3.87c.13-.18.31-.37.5-.32v.21h-.4m.81-3.5c.13-.18.31-.38.5-.32v.21h-.4m-7.74-3.87c.13.34.25.76,0,1l-.27-.17.32-.64m-2.05-1.46c.14.34.26.76,0,1l-.27-.17.33-.64m-.73-2.97c.09.2.18.45,0,.59l-.18-.11.18-.36m1.96,3.36c.1.2.19.45,0,.59l-.18-.11.18-.36m-3.84-.57c.13-.18.31-.38.5-.32v.21h-.4m.82-3.5c.13-.18.3-.38.5-.32v.2h-.4m7.2,6.19c.13-.18.31-.38.5-.32v.2h-.4m-5.06-3.06c.13-.18.31-.37.5-.31v.2h-.4m39.54-3.12c.13.34.25.77,0,1l-.27-.17.32-.65" transform="translate(463 144.006)" opacity="0.2"/><path d="M272.68,493.25a4.65,4.65,0,0,0-2.63,1.09,5.623,5.623,0,0,1-.6.49,1.95,1.95,0,0,0-.72.73,16.047,16.047,0,0,0-.64,3.37c-.1.78-.22,1.48-.23,1.55a1.4,1.4,0,0,1-.41.4,12.34,12.34,0,0,0-4.45,6.17,6.384,6.384,0,0,1-.24.7c-.05.03-.5,2.7-.93,5.58-.4,2.65-.77,5.21-1.45,10.24-.64,4.79-.82,6.01-1.15,8.13-.13.8-.23,1.62-.23,1.85a7.35,7.35,0,0,0,1.44,4.23,10.532,10.532,0,0,0,1.85,1.87,9.83,9.83,0,0,0,3.67,1.66,9.479,9.479,0,0,0,2.72.03,7.069,7.069,0,0,0,2.74-1.2,8.579,8.579,0,0,0,1.8-2c.57-.89,2.28-4.26,4.41-8.67l1.2-2.47.28.4a7.23,7.23,0,0,0,10.28,1.92,7.87,7.87,0,0,0,2.38-2.77l.2-.4h7.83l.17.35a7.54,7.54,0,0,0,5.78,4.14,5.941,5.941,0,0,0,1.8-.03,7.54,7.54,0,0,0,3.42-1.43,8.161,8.161,0,0,0,1.77-1.93c.25-.4.35-.51.35-.37,0,.18,4.55,9.34,5.33,10.75a7.06,7.06,0,0,0,4.87,3.7,9.7,9.7,0,0,0,2.71-.02,9.41,9.41,0,0,0,4.95-2.82,7.482,7.482,0,0,0,1.32-1.98,6.509,6.509,0,0,0,.67-2.59,12.173,12.173,0,0,0-.35-3.06c-.12-.7-.55-3.75-.96-6.78l-.97-7.13q-.621-4.6-1.46-9.17l-.3-.82a12.17,12.17,0,0,0-4.85-6.4,1.03,1.03,0,0,1-.36-.32c-.01-.07-.1-.6-.17-1.16a29.515,29.515,0,0,0-.6-3.4,2.04,2.04,0,0,0-.8-.86,2.561,2.561,0,0,1-.48-.37,4.341,4.341,0,0,0-2.55-1.17,13.819,13.819,0,0,0-3.32.03,4.35,4.35,0,0,0-2.3,1.06,4.022,4.022,0,0,1-.53.44,2.21,2.21,0,0,0-.79.8,15.651,15.651,0,0,0-.57,3.08l-.26,1.74-.03.2h-6.45c-6.36,0-6.45,0-6.6.12s-.23.12-2.4.12-2.27,0-2.37-.12-.2-.12-6.64-.13l-6.54-.02-.1-.73a26.614,26.614,0,0,0-.77-4.3,2.23,2.23,0,0,0-.86-.83,1.259,1.259,0,0,1-.3-.26,4.119,4.119,0,0,0-1.14-.8,9.271,9.271,0,0,0-4.44-.43Z" transform="translate(463 144.006)" fill="#3f3d56"/><path d="M316.38,508.6c.13.33.25.76,0,1l-.28-.17.33-.64m5.62,6.24c.14.33.26.76,0,1l-.28-.17.33-.64m-2.03-1.46c.13.33.25.76,0,1l-.27-.17.33-.64m-10.98-7.18c.13.34.25.77,0,1l-.27-.17.33-.65m3.55.73c.14.34.26.77,0,1l-.28-.17.33-.65m1.22-2.16c.14.34.26.76,0,1l-.28-.17.33-.64m5.28,5.09c.1.19.19.45.05.59l-.18-.11.18-.36m1.92,3.36c.1.2.19.45,0,.59l-.17-.11.17-.36m-6.95-4.57c.1.2.19.45,0,.6l-.17-.11.18-.36m3.1,3.87c.13-.18.31-.38.5-.32v.21h-.4m.81-3.51c.13-.17.31-.37.5-.31v.2h-.4m-7.72-3.87c.13.34.25.77,0,1l-.27-.17.32-.65m-2.04-1.45c.14.34.26.77,0,1l-.27-.17.33-.65m-.76-2.96c.09.2.18.45,0,.59l-.18-.11.18-.36m1.96,3.37c.1.19.19.45.05.59l-.18-.11.18-.36m-3.89-.58c.13-.18.31-.37.5-.32v.2h-.4m.81-3.49c.13-.18.31-.38.51-.32v.21h-.4m7.2,6.18c.13-.18.31-.37.5-.31v.2h-.4m-5.06-3.06c.13-.18.31-.38.5-.32v.21h-.4m-15.85-25.51c.13.33.25.76,0,1l-.27-.17.32-.64m-.96,3.42c.13.34.25.76,0,1l-.28-.17.33-.64m5.62,6.24c.14.34.26.77,0,1l-.28-.17.33-.65m-2.03-1.45c.13.34.25.76,0,1l-.27-.18.33-.64m-10.98-7.17c.13.34.25.77,0,1l-.27-.17.33-.65m3.55.74c.14.33.26.76,0,1l-.28-.17.33-.64m1.22-2.18c.14.34.26.77,0,1l-.28-.17.33-.65m5.28,5.1c.1.2.19.45,0,.59l-.18-.11.18-.36m1.97,3.36c.1.2.19.45,0,.59l-.17-.11.17-.35m-6.95-4.57c.1.2.19.45,0,.59l-.17-.11.18-.36m3.12,3.87c.13-.18.31-.38.5-.32v.21h-.4m.79-3.5c.13-.18.31-.38.5-.32v.2h-.4m-7.72-3.86c.13.33.25.76,0,1l-.27-.17.32-.64m-2.04-1.41c.14.33.26.76,0,1l-.27-.17.33-.64m-.76-3.03c.09.2.18.45,0,.6l-.18-.11.18-.36m1.96,3.36c.1.2.19.45,0,.59l-.18-.11.18-.36m-3.84-.57c.13-.18.31-.38.5-.32v.2h-.4m.81-3.5c.13-.18.31-.38.51-.32v.21h-.4m7.2,6.19c.13-.18.31-.38.5-.32v.2h-.4m-5.02-3.06c.13-.18.31-.38.5-.32v.21h-.4m39.5-1.94c.13.34.25.76,0,1l-.27-.17.32-.64m-.97,3.38c.14.34.26.77,0,1l-.28-.17.33-.65m5.63,6.29c.14.34.26.77,0,1l-.28-.17.33-.65m-2.03-1.45c.13.34.25.77,0,1l-.27-.17.33-.65m-10.98-7.16c.13.33.25.76,0,1l-.27-.17.33-.64m3.55.72c.14.34.26.76,0,1l-.27-.18.33-.64m1.21-2.17c.14.34.26.77,0,1l-.27-.17.33-.65m5.27,5.1c.1.2.19.45,0,.59l-.17-.11.18-.36m1.96,3.37c.1.2.19.45,0,.59l-.17-.11.17-.36m-6.95-4.57c.1.2.19.45,0,.59l-.17-.11.17-.36m3.11,3.87c.13-.18.31-.37.5-.31v.2h-.4m.81-3.5c.13-.18.31-.38.5-.32V482h-.4m-7.72-3.87c.13.34.25.76,0,1l-.28-.17.33-.64m-2.04-1.46c.14.34.25.76,0,1l-.27-.17.33-.64m-.76-2.97c.09.2.18.45,0,.59l-.18-.11.18-.36m1.96,3.36c.1.2.19.45.05.59l-.18-.11.18-.36m-3.89-.57c.13-.18.31-.38.5-.32V477h-.4m.81-3.5c.13-.18.31-.38.5-.32v.2h-.4m7.21,6.19c.13-.18.31-.38.5-.32v.21h-.4m-5.06-3.07c.13-.18.31-.37.5-.31v.2h-.39m21.85,34.6c.13.33.25.76,0,1l-.27-.17.33-.64m-.97,3.42c.13.34.25.76,0,1l-.27-.17.32-.64m5.63,6.24c.13.34.25.76,0,1l-.28-.18.33-.64m-2.04-1.45c.13.34.25.76,0,1l-.27-.18.33-.64m-10.98-7.17c.13.34.25.77,0,1l-.27-.17.33-.65m3.55.74c.14.33.26.76,0,1l-.28-.17.33-.64m1.22-2.18c.14.34.26.77,0,1l-.28-.17.33-.65m5.28,5.1c.1.2.19.45.05.59l-.18-.11.18-.36m1.92,3.36c.1.2.19.45,0,.59l-.17-.11.18-.35m-6.96-4.57c.1.2.19.45.05.59l-.18-.11.18-.36m3.06,3.87c.13-.18.31-.38.5-.32v.21h-.44m.85-3.52c.13-.18.31-.38.5-.32v.2h-.4m-7.72-3.88c.13.33.25.76,0,1l-.27-.17.33-.64m-2.05-1.42c.14.33.26.76,0,1l-.28-.17.33-.64m-.75-2.96c.09.2.18.45,0,.6l-.18-.11.18-.36m1.97,3.34c.09.2.18.45,0,.59l-.18-.11.18-.36m-3.85-.59c.13-.18.31-.38.5-.32v.2h-.4m.82-3.48c.13-.18.3-.38.5-.32v.21h-.4m7.2,6.19c.13-.18.31-.38.5-.32v.2h-.4m-5.06-3.06c.13-.18.31-.38.5-.32v.21h-.42m.67,3.95c.13.34.25.77,0,1l-.27-.17.33-.65m-.97,3.43c.13.34.25.77,0,1l-.28-.17.33-.65m5.62,6.26c.14.33.26.76,0,1l-.28-.17.33-.64m-2.03-1.46c.13.33.25.76,0,1l-.27-.17.33-.64m-10.98-7.18c.13.34.25.76,0,1l-.27-.17.33-.64m3.55.72c.14.34.26.77,0,1l-.28-.17.33-.65m1.22-2.16c.14.33.26.76,0,1l-.28-.17.33-.64m5.28,5.08c.1.2.19.45.05.6l-.18-.11.18-.36m1.92,3.36c.1.2.19.45,0,.59l-.17-.11.17-.36m-6.95-4.57c.1.2.19.45,0,.59l-.17-.11.18-.36m3.1,3.88c.13-.18.31-.38.5-.32v.2h-.4m.81-3.5c.13-.18.31-.38.5-.32v.21h-.4m-7.72-3.87c.13.34.25.77,0,1l-.27-.17.32-.65m-2.04-1.45c.14.34.26.77,0,1l-.27-.17.33-.65m-.76-2.96c.09.2.18.45,0,.59l-.18-.11.18-.36m1.96,3.36c.1.2.19.45.05.6l-.18-.11.18-.36m-3.89-.58c.13-.18.31-.38.5-.32v.21h-.4m.82-3.5c.13-.18.3-.38.5-.32v.21h-.4m7.2,6.17c.13-.18.31-.38.5-.32v.21h-.4m-5.06-3.05c.13-.18.31-.38.5-.32v.2h-.4" transform="translate(463 144.006)" opacity="0.2"/><path d="M352.86,516.58a4.28,4.28,0,0,1-.6,1.21c-.72,1.12-1.39,2.26-2.07,3.41l-.94,1.59a46.066,46.066,0,0,0-3,5.68,5.231,5.231,0,0,0-.44,1.59c0,.57,0,1.3-.55,1.49a4.329,4.329,0,0,1-1.23-1.64,8.739,8.739,0,0,1-.54-2.64l-1-10.36a13.35,13.35,0,0,1,0-3.4,28.225,28.225,0,0,1,.81-3c.79-2.89.64-6,1.76-8.79a.3.3,0,0,1,.08-.13c.14-.12.34,0,.44.21,2.4,3.78,3.76,8.1,6,12,.36.85,1.53,1.77,1.28,2.78Z" transform="translate(463 144.006)" fill="#fed253"/><path d="M352.86,516.58a4.28,4.28,0,0,1-.6,1.21c-.72,1.12-1.39,2.26-2.07,3.41l-.94,1.59a46.066,46.066,0,0,0-3,5.68,5.231,5.231,0,0,0-.44,1.59c0,.57,0,1.3-.55,1.49a4.329,4.329,0,0,1-1.23-1.64,8.739,8.739,0,0,1-.54-2.64l-1-10.36a13.35,13.35,0,0,1,0-3.4,28.225,28.225,0,0,1,.81-3c.79-2.89.64-6,1.76-8.79a.3.3,0,0,1,.08-.13c.14-.12.34,0,.44.21,2.4,3.78,3.76,8.1,6,12,.36.85,1.53,1.77,1.28,2.78Z" transform="translate(463 144.006)" opacity="0.05"/><path d="M351.17,516.81c-.18.32-.44.68-.8.64v-.32l.71-.14m-3.31,1.35c-.18.31-.44.67-.8.64v-.33l.7-.14m-1.42,8.27c-.18.31-.44.67-.8.64v-.32l.71-.14m-.14-2.52c-.19.31-.45.67-.81.63v-.32l.71-.14m-1.2-13.07c-.18.31-.44.67-.8.63v-.32l.71-.14m1.62,3.23c-.18.31-.44.67-.8.63v-.32l.71-.14m2.43-.41c-.18.32-.44.68-.8.64v-.32l.71-.14m-.74,7.28c-.1.2-.24.42-.44.4v-.21l.39-.08m-1.46,3.59c-.1.2-.24.43-.44.4v-.2l.39-.09m-.77-8.32c-.1.2-.24.43-.44.4v-.2l.39-.09m-1.16,4.81c.22,0,.49,0,.56.19l-.17.12-.26-.3m3.27-1.54c.22,0,.49,0,.56.2l-.17.11-.26-.3m-1.74-8.46c-.18.32-.44.67-.8.64v-.32l.71-.14m-.14-2.5c-.18.31-.44.67-.8.63v-.32l.71-.14m1.84-2.47c-.1.2-.24.42-.44.4v-.21l.4-.08m-1.48,3.59c-.09.2-.24.43-.44.4v-.2l.39-.09m-2.02-3.4c.23,0,.49,0,.56.19l-.17.12-.26-.3m3.32-1.54c.22,0,.48,0,.56.2l-.17.12-.26-.31m-.37,9.49c.22,0,.49,0,.56.2l-.17.11-.26-.3m-.72-5.87c.23,0,.49,0,.56.19l-.17.12-.26-.3m-68.58,6.31c-.18.32-.44.68-.81.64v-.32l.71-.14m-3.3,1.35c-.18.31-.45.67-.81.64v-.33l.71-.14m-1.43,8.27c-.18.31-.44.67-.8.64v-.32l.71-.14m-.15-2.52c-.18.31-.44.67-.8.63v-.32l.71-.14m-1.19-13.07c-.18.31-.44.67-.81.63v-.32l.71-.14m1.62,3.23c-.18.31-.44.67-.8.63v-.32l.71-.14m2.44-.41c-.18.32-.44.68-.81.64v-.32l.71-.14m-.74,7.28c-.09.2-.24.42-.43.4v-.21l.39-.08m-1.47,3.59c-.1.2-.24.43-.44.4v-.2l.39-.09m-.77-8.32c-.1.2-.24.43-.44.4v-.2l.39-.09m-1.16,4.81c.22,0,.49,0,.56.19l-.17.12-.26-.3m3.27-1.54c.22,0,.49,0,.56.2l-.17.11-.26-.3m-1.74-8.46c-.18.32-.44.67-.81.64v-.32l.71-.14m-.13-2.5c-.18.31-.44.67-.8.63v-.32l.71-.14m1.84-2.47c-.1.2-.24.42-.44.4v-.21l.39-.08m-1.47,3.59c-.1.2-.24.43-.44.4v-.2l.4-.09m-1.96-3.4c.22,0,.48,0,.56.19l-.17.12-.26-.3m3.25-1.54c.22,0,.49,0,.56.2l-.17.12-.26-.31m-.37,9.49c.23,0,.49,0,.56.2l-.17.11-.26-.3m-.71-5.87c.22,0,.48,0,.56.19l-.17.12-.26-.3" transform="translate(463 144.006)" opacity="0.2"/><path d="M356.04,521.99a3.919,3.919,0,0,1-1,.91c-1.06.79-2.1,1.62-3.14,2.44l-1.45,1.16a44.2,44.2,0,0,0-4.83,4.23,5.36,5.36,0,0,0-1,1.33c-.24.51-.48,1.21-1,1.2a4.4,4.4,0,0,1-.57-2,8.941,8.941,0,0,1,.45-2.66l2.75-10a13.8,13.8,0,0,1,1.18-3.2,25.309,25.309,0,0,1,1.81-2.48c1.77-2.41,2.74-5.39,4.78-7.58a.33.33,0,0,1,.12-.09.57.57,0,0,1,.34.35c.9,4.39.62,8.91,1.31,13.33.15.94.85,2.2.25,3.06Z" transform="translate(463 144.006)" fill="#fed253"/><path d="M354.39,521.6c-.28.23-.65.47-1,.31l.08-.31.72.12m-3.52.09c-.28.23-.65.47-1,.31l.08-.31.72.12m-4.24,7.23c-.28.22-.65.47-1,.31l.08-.32.71.12m.83-2.39c-.28.23-.65.47-1,.31l.09-.31.71.12m3.6-12.63c-.28.23-.66.47-1,.31l.08-.31.71.12m.42,3.6c-.28.23-.65.47-1,.31l.08-.31.72.12m2.47.5c-.28.23-.65.47-1,.31l.08-.32.71.12m-3.22,6.55c-.17.16-.38.32-.56.22l.06-.2.39.06m-2.63,2.82c-.16.15-.37.31-.55.21l.05-.2.4.06m2.26-8.01c-.16.16-.37.32-.55.22v-.2l.4.06m-2.73,4.08c.21.08.45.19.45.39h-.2l-.13-.38m3.6-.23c.21.07.45.18.46.39h-.2l-.14-.37m1.4-8.47c-.29.23-.66.47-1,.31l.08-.32.71.12m.82-2.39c-.28.23-.65.47-1,.31l.08-.31.71.12m2.66-1.63c-.17.16-.38.32-.56.22l.06-.2.39.06m-2.63,2.85c-.16.15-.37.31-.55.21v-.2l.4.06m-.57-3.87c.21.07.45.18.46.38l-.2.05-.14-.38m3.6-.27c.21.07.46.18.46.39h-.2l-.14-.37m-3.72,8.77c.21.07.45.18.45.39h-.2l-.14-.38m1.43-5.69c.21.07.45.18.45.38l-.2.05-.13-.38m-6.89-.83c.14.34.26.77,0,1l-.28-.17.33-.65m-.96,3.4c.13.33.25.76,0,1l-.27-.17.33-.64m5.62,6.23c.13.33.25.76,0,1l-.27-.17.32-.64m-2.04-1.45c.14.33.26.76,0,1l-.28-.17.33-.64m-10.97-7.18c.14.34.26.76,0,1l-.28-.18.33-.64m3.57.73c.13.34.25.77,0,1l-.28-.17.33-.65m1.22-2.16c.13.33.25.76,0,1l-.27-.17.32-.64m5.28,5.13c.09.2.18.46,0,.6l-.18-.11.18-.36m1.97,3.31c.09.2.18.45,0,.59l-.18-.11.18-.36m-6.95-4.56c.09.2.18.45,0,.59l-.18-.1.18-.36m3.1,3.87c.13-.18.31-.38.5-.32v.2h-.4m.82-3.51c.13-.18.3-.37.5-.31v.2h-.4m-7.73-3.87c.14.34.25.77,0,1l-.27-.17.33-.65m-2.04-1.45c.13.34.25.77,0,1l-.28-.17.33-.65m-.76-2.96c.1.2.19.45,0,.59l-.17-.11.17-.36m1.97,3.36c.09.2.18.46,0,.6l-.18-.11.18-.36m-3.84-.58c.13-.18.3-.38.5-.32v.21h-.4m.81-3.5c.13-.18.31-.38.5-.32v.21h-.4m7.21,6.18c.13-.18.3-.37.5-.32v.21h-.4m-5.07-3.06c.13-.18.31-.38.5-.32v.21h-.4m-8.78-10.19c.14.33.26.76,0,1l-.28-.17.33-.64m-.96,3.45c.13.34.25.76,0,1l-.27-.18.33-.64m5.62,6.22c.13.34.25.77,0,1l-.27-.17.33-.65m-2.05-1.45c.14.34.26.76,0,1l-.28-.18.33-.64m-10.96-7.17c.14.34.26.77,0,1l-.28-.17.33-.65m3.56.74c.13.33.25.76,0,1l-.27-.17.32-.64m1.22-2.18c.13.34.25.77,0,1l-.27-.17.32-.65m5.28,5.1c.09.2.18.45,0,.59l-.17-.11.17-.36m1.97,3.36c.09.2.18.45,0,.59l-.18-.11.18-.35m-6.95-4.57c.09.2.18.45,0,.59l-.18-.11.18-.36m3.1,3.87c.13-.18.31-.38.5-.32v.21h-.4m.82-3.5c.13-.18.31-.38.5-.32v.2h-.4m-7.73-3.86c.14.33.26.76,0,1l-.27-.17.33-.64m-2.04-1.46c.13.33.25.76,0,1l-.28-.17.33-.64m-.76-2.98c.1.2.19.45,0,.6l-.17-.11.17-.36m1.97,3.36c.09.2.18.45,0,.59l-.17-.11.17-.36m-3.84-.57c.13-.18.31-.38.5-.32v.2h-.4m.84-3.5c.13-.18.31-.38.5-.32v.17h-.4m7.18,6.23c.13-.18.3-.38.5-.32v.2h-.4m-5.07-3.06c.13-.18.31-.38.5-.32v.21h-.4" transform="translate(463 144.006)" opacity="0.2"/><path d="M251.36,361.27c-2.85-3.57-2.55-9.26-1.17-13.87s3.69-8.9,4.36-13.73c.79-5.6-.56-12,2.25-16.59,1.82-3,5-4.43,8-5.21s6.24-1.07,9.13-2.46c3.89-1.87,6.9-5.54,10.43-8.21,3.91-3,8.81-4.66,13.25-3,4.15,1.52,7.19,5.63,11,8.12a66.9,66.9,0,0,0,6,3.13,70,70,0,0,1,10.33,7.15c2.38,1.87,4.89,3.9,6,7,1.24,3.49.38,7.51-.89,11a13.08,13.08,0,0,0-1.21,5.16c.13,2.22,1.47,4.05,2.64,5.8,2.76,4.15,5,9.09,4.91,14.34,0,2.36-.54,4.72-.24,7a15.19,15.19,0,0,1,.36,3.21c-.1,1.07-.78,2.2-1.71,2.17a2.61,2.61,0,0,1-1.41-.75c-3-2.48-7-4.63-10.13-2.36a2.07,2.07,0,0,1-1.19.59,1.57,1.57,0,0,1-.94-.54c-4.78-4.61-5.37-14.29-11.16-16.88-2.57-1.16-5.46-.47-8.2-.87-3.3-.47-6.29-2.51-9.53-3.33-5.94-1.51-12.54,1.51-16,7.34-1.58,2.65-2.53,5.73-3.73,8.63-1.56,3.74-6.8,12-11,7.62-1.36-1.4-1.55-3.77-3.1-5.22-2.2-2.04-5.09-2.74-7.05-5.24Z" transform="translate(463 144.006)" fill="#3f3d56"/><path d="M302.82,557.67c-20.5-7.62-43.88-10.55-64-2-3.46,1.48-7.21,3.87-7.57,7.62-.16,1.73.46,3.43.8,5.13,1.11,5.36-.44,10.87-.8,16.34s1,11.8,5.86,14.38c2.57,21.6,7.55,42.07,16.85,61.73a43.861,43.861,0,0,1,3.66,9.34c.71,3.3.56,6.72.7,10.09.43,10.27,3.57,20.21,6.68,30a37.681,37.681,0,0,0,2.38,6.19c2.23,4.2,6,7.39,8.64,11.32s4.18,9.4,1.49,13.32c-1.58,2.3,4,3.75,6.8,3.8a313.443,313.443,0,0,0,36.63-1.46,3.69,3.69,0,0,0,4-3.42c1.19-4.25,2.38-8.81,1-13-.74-2.22-2.2-4.29-2.16-6.63,0-2,1.23-3.88,1.71-5.87,1.47-6.13-3.75-11.56-7.59-16.56-8-10.46-11.18-23.76-14.07-36.63q-5.67-25.19-11.08-50.44c3.1,2.44,2.77,6.5,5.75,9.08,3.52,3,9.42,1.12,12.05-2.7s2.84-8.78,2.73-13.43c-.34-15.47-5.07-31.69-10.46-46.2ZM330,563.34c4.94-12.14,16.53-21.69,29.58-22.81s26.73,7.14,30.59,19.66a49.9,49.9,0,0,1,1.64,9.18c3.46,31,3.47,62.85-4.24,93.12-1.58,6.24-3.5,12.44-4.06,18.84s.38,13.19,4.06,18.47c1,1.48,2.3,2.88,2.79,4.62.57,2,.06,4.08-.46,6.08l-6.47,25.19a9.82,9.82,0,0,1-2,4.42c-1.89,2-5,2.09-7.79,1.81a59.759,59.759,0,0,1-21.11-6.17c-6-3.07-12.16-8.36-11.8-15.12.09-1.69.59-3.44,0-5a10.6,10.6,0,0,0-2.36-3c-3.51-3.9-4.31-9.65-3.36-14.8s3.45-9.88,5.91-14.5-.54-10.67-1.33-15.7c-2.74-17.42,2.89-35.7-2-52.64-3.6,3.13-9.27,5.27-12.93,2.23-3.27-2.72-2.88-7.76-2.2-12,2.28-14.01,2.2-28.74,7.54-41.88Z" transform="translate(463 144.006)" fill="#e3e8f4"/><path d="M682.71,447.27l3,1q-3.48,19.75-5.76,39.71a8.72,8.72,0,0,1,3.32,1.62,31.7,31.7,0,0,0-2,8.53,80.432,80.432,0,0,0-12.46-3.54l1.35-5.07a1.42,1.42,0,0,1,.53-.94,2.33,2.33,0,0,1,1.09-.13c2-.09,2.61-2.73,2.71-4.74.39-7.37,2.17-14.59,3.95-21.76a2.84,2.84,0,0,0-3.93.33c.59-.74,0-4.69.05-5.75.08-1.61-.16-3.11,1.2-4.06,1.11-.77,3-.63,4.2-1.47a7,7,0,0,0,2.75-3.73Z" transform="translate(463 144.006)" fill="none" stroke="#fff" stroke-miterlimit="10" stroke-width="1"/><rect width="19.29" height="32.62" rx="8.18" transform="translate(798.172 643.017) rotate(-22.65)" fill="#083d77"/><path d="M398.31,522.55c.89,4.81,1.36,9.85-.05,14.53s-5.08,9-9.89,9.83c-3.29.6-6.66-.4-9.7-1.8s-5.89-3.2-9-4.33c-6.73-2.42-14.27-1.57-21.05.7a57.161,57.161,0,0,1-6.59,2.07,36.483,36.483,0,0,1-5.91.54c-7.42.29-14.95.57-22.18-1.13a13,13,0,0,1-5.66-2.52,12.67,12.67,0,0,1-3.39-5.83c-1.75-5.45-2-11.78,1.15-16.57,2.28-3.49,6.1-5.75,10.09-7a54.193,54.193,0,0,1,12.37-1.73,11,11,0,0,1,10.44,3.63l5.08,4.54a12.751,12.751,0,0,0,3.36,2.4,12,12,0,0,0,3.36.71,87.245,87.245,0,0,0,11.31.45c.38-2.29-1-4.55-.88-6.86a7.39,7.39,0,0,1,3.57-5.64,17.48,17.48,0,0,1,6.52-2.23c5.12-.94,10.51-1.2,15.45.44,7.7,2.58,10.23,8.4,11.6,15.8Z" transform="translate(463 144.006)" fill="#fbbebe"/><path d="M395.13,479.97a65.6,65.6,0,0,1,1.75,9.82c.16,2.25.1,4.5.29,6.75.71,8.37,4.88,16.33,4.52,24.73a15.06,15.06,0,0,0-8.24-1.21c.74-2.58-1.13-5.35-3.56-6.49s-5.24-1.07-7.93-.88c-7.49.53-15,1.76-21.85,4.94a1.13,1.13,0,0,1-1,.15c-.43-.21-.42-.81-.42-1.28.06-4.08-4.22-6.91-5.24-10.86-.73-2.85.34-5.81,1.12-8.65,2.95-10.68,1.84-22,2.72-33.06.5-6.26,2-13,6.83-17a15,15,0,0,1,15.82-1.48C391.46,451.18,392.61,469.03,395.13,479.97Z" transform="translate(463 144.006)" fill="#083d77"/><circle cx="21.63" cy="21.63" r="21.63" transform="translate(1222.61 316.256)" fill="#083d77" opacity="0.1"/><circle cx="21.63" cy="21.63" r="21.63" transform="translate(525.61 205.256)" fill="#083d77" opacity="0.1"/><circle cx="21.63" cy="21.63" r="21.63" transform="translate(635.61 257.256)" fill="#083d77" opacity="0.1"/><circle cx="21.63" cy="21.63" r="21.63" transform="translate(1147.72 222.116)" fill="#083d77" opacity="0.1"/><circle cx="36.25" cy="36.25" r="36.25" transform="translate(1280.25 235.966)" fill="#083d77" opacity="0.1"/><circle cx="36.25" cy="36.25" r="36.25" transform="translate(1315 414.966)" fill="#083d77" opacity="0.1"/><circle cx="36.25" cy="36.25" r="36.25" transform="translate(463 322.966)" fill="#083d77" opacity="0.1"/></g></svg>