<svg xmlns="http://www.w3.org/2000/svg" width="652.4" height="325.2" viewBox="0 0 652.4 325.2"><g transform="translate(-616 -378.8)"><path d="M515.606,102.68l2.789,1.51-.15,9.5-2.827,1.49-2.789-1.51.15-9.5,2.827-1.49" transform="translate(436.29 588.82)" fill="#fff252"/><path d="M513.31,144.22l4,4,4-4-4-7.431-4,7.431" transform="translate(510.69 271.211)" fill="#fff252"/><path d="M618.91,152.22l4,4,4-4-4-4-4,4" transform="translate(612 378)" fill="#fff252"/><path d="M688.01,251.03l4,4,4-4-4-4-4,4" transform="translate(495.99 384.97)" fill="#fff252"/><path d="M59.5,222.03l-10.6-10.6,10.6-10.61,10.6,10.61-10.6,10.5" transform="translate(1103.1 361.97)" fill="#fff252"/><path d="M180.15,203.18l-1.8-3.845-6.086,2.845,3.86,4.97,4.03-3.97" transform="translate(523.85 272.665)" fill="#fff252"/><path d="M131.22,270.68l1.49,1.51-.08,9.5-1.51,1.49-1.49-1.51.08-9.5,1.51-1.49" transform="translate(612 353.02)" fill="#fff252"/><path d="M126.48,250.37l9.4.07,1.49,1.52-1.51,1.48-9.4-.07-1.49-1.51,1.51-1.49" transform="translate(612 378)" fill="#fff252"/><path d="M239.91,324.23l4-4-4-4-4,4" transform="translate(612 378)" fill="#fff252"/><line x2="4" y2="4" transform="translate(847.91 698.22)" fill="#fff252"/><path d="M220.24,240l10.51,10.68L220.07,261.2l-10.52-10.68,10.69-10.42" transform="translate(658.177 388.405) rotate(-3)" fill="#fff252"/><path d="M440.24,240l10.51,10.68-10.51,18.2-10.69-18.36,10.69-10.42" transform="translate(642.45 424)" fill="#fff252"/><path d="M220.24,0l10.51,10.68L220.07,21.2,209.55,10.52,220.24.1" transform="translate(633.25 378.8)" fill="#fff252"/><path d="M220.24,240l18.51,10.52-12.127,17.156L209.55,250.52l10.69-10.42" transform="translate(441.25 176)" fill="#fff252"/><path d="M239.91,324.23l4-4-4-4-4,4" transform="translate(380.09 203.77)" fill="#fff252"/><path d="M239.91,324.23l1.6-4-1.6-4-1.81,4" transform="translate(510.49 227.77)" fill="#fff252"/><path d="M220.24,240l10.51,10.68L220.07,261.2l-10.52-10.68,10.69-10.42" transform="translate(466.177 301.265) rotate(-3)" fill="#fff252"/><path d="M131.22,270.68l1.49,1.51-.08,9.5-1.51,1.49-1.49-1.51.08-9.5,1.51-1.49" transform="translate(646.63 153.32)" fill="#fff252"/><path d="M126.48,250.37l9.4.07,1.49,1.52-1.51,1.48-9.4-.07-1.49-1.51,1.51-1.49" transform="translate(646.63 178.3)" fill="#fff252"/><path d="M131.22,270.68l1.49,1.51-.08,9.5-1.51,1.49-1.49-1.51.08-9.5,1.51-1.49" transform="translate(742.63 209.32)" fill="#fff252"/><path d="M126.48,250.37l9.4.07,1.49,1.52-1.51,1.48-9.4-.07-1.49-1.51,1.51-1.49" transform="translate(742.63 234.3)" fill="#fff252"/><path d="M220.24,0,228.1,11.313,220.07,21.2,210.644,7.019,220.24.1" transform="translate(763.901 496)" fill="#fff252"/><path d="M440.24,240l10.51,10.68-10.51,18.2-10.69-18.36,10.69-10.42" transform="matrix(-0.998, -0.07, 0.07, -0.998, 1560.91, 733.379)" fill="#fff252"/><path d="M239.91,324.23l4-4-4-4-4,4" transform="translate(828.09 223.77)" fill="#fff252"/><line x2="4" y2="4" transform="translate(1064 543.99)" fill="#fff252"/><path d="M131.22,270.68l1.49,1.51-.08,9.5-1.51,1.49-1.49-1.51.08-9.5,1.51-1.49" transform="translate(1131.03 324.82)" fill="#fff252"/><path d="M126.48,250.37l9.4.07,1.49,1.52-1.51,1.48-9.4-.07-1.49-1.51,1.51-1.49" transform="translate(1131.03 349.8)" fill="#fff252"/><path d="M180.15,203.18l-1.8-3.845-6.086,2.845,3.86,4.97,4.03-3.97" transform="translate(939.85 208.665)" fill="#fff252"/><path d="M239.91,324.23l1.6-4-1.6-4-1.81,4" transform="translate(926.49 163.77)" fill="#fff252"/><path d="M514.265,102.68l1.532,2.9-.082,18.24-1.553,2.861-1.532-2.9.082-18.24,1.553-2.861" transform="translate(439.37 321.32)" fill="#fff252"/><path d="M131.22,270.68l1.49,1.51-.08,9.5-1.51,1.49-1.49-1.51.08-9.5,1.51-1.49" transform="translate(667.792 484.816) rotate(-47)" fill="#fff252"/><path d="M126.48,250.37l9.4.07,1.49,1.52-1.51,1.48-9.4-.07-1.49-1.51,1.51-1.49" transform="translate(686.061 501.852) rotate(-47)" fill="#fff252"/></g></svg>