<svg xmlns="http://www.w3.org/2000/svg" viewBox="0 0 696.01 324.22" id="star" class="jsx-2185441056"><title class="jsx-2185441056">Stars</title><g class="jsx-2185441056"><path d="M109.6,53l4,4,4-4-4-4-4,4m69.1,98.8,4,4,4-4-4-4-4,4M0,190.8l4,4,4-4-4-4-4,4M284.1,212l-1.5-1.6V201l1.5-1.5,1.5,1.5v9.4l-1.5,1.5" transform="translate(0 -24.98)" style="fill:#fff252" class="jsx-2185441056"></path><path d="M288.8,207.2h-9.4l-1.5-1.5,1.5-1.5h9.4l1.5,1.5-1.5,1.5" transform="translate(0 -24.98)" style="fill:#fff252" class="jsx-2185441056"></path><path d="M241.6,82.2l-1-.5-6.7-6.6L233.85,73l2.15,0,6.7,6.7.08,2.12-1.08.48" transform="translate(0 -24.98)" style="fill:#fff252" class="jsx-2185441056"></path><path d="M235,82.2l-1.48-1.52L234,79.6l6.6-6.7,2.15,0-.05,2.15h0L236,81.7l-1,.5M48.6,147.9l-1.5-1.5v-9.5l1.5-1.5,1.5,1.5v9.5l-1.5,1.5" transform="translate(0 -24.98)" style="fill:#fff252" class="jsx-2185441056"></path><path d="M53.3,143.2H43.9l-1.5-1.5,1.5-1.5h9.4l1.5,1.5-1.5,1.5m74.2-6.2-10.6-10.6,10.6-10.6,10.6,10.6-10.6,10.5" transform="translate(0 -24.98)" style="fill:#fff252" class="jsx-2185441056"></path><path d="M558,205.92,553.11,202l-3,2.93,3.85,5,4-4M257.66,122.61l-4.92-3.93-3,2.93,3.86,5,4-4m194.83,74.5-4.91-3.93-3,2.93,3.86,5,4-4M384.15,97.78l-4.91-3.93-3,2.93,3.85,5,4-4m179-37.62-4.92-3.93-3,2.92,3.85,5,4-4M279.22,36.77l1.48,1.61-.07,9.4-1.51,1.49-1.49-1.51.07-9.4,1.52-1.49" transform="translate(0 -24.98)" style="fill:#fff252" class="jsx-2185441056"></path><path d="M274.48,41.54l9.4.07,1.49,1.51-1.51,1.49-9.4-.07L273,43l1.51-1.49M375.56,239.82l1.09.51L383.3,247v2.2l-2.2,0h0l-6.55-6.75-.07-2.12,1.09-.47" transform="translate(0 -24.98)" style="fill:#fff252" class="jsx-2185441056"></path><path d="M382.26,239.87l1,.51v2.1l-6.55,6.65-2.15-.07.06-2.15h0l6.65-6.55,1.11-.49" transform="translate(0 -24.98)" style="fill:#fff252" class="jsx-2185441056"></path><path d="M514.22,102.68l1.49,1.51-.08,9.5-1.51,1.49-1.49-1.51.08-9.5,1.51-1.49" transform="translate(0 -24.98)" style="fill:#fff252" class="jsx-2185441056"></path><path d="M509.48,107.35l9.4.07,1.49,1.51-1.51,1.49-9.4-.07L508,108.83l1.51-1.48M435.24,113l10.51,10.68-10.68,10.51-10.52-10.68,10.68-10.41" transform="translate(0 -24.98)" style="fill:#fff252" class="jsx-2185441056"></path><polyline points="513.31 144.22 517.31 148.22 521.31 144.22 517.31 140.22 513.31 144.22" style="fill:#fff252" class="jsx-2185441056"></polyline><polyline points="618.91 152.22 622.91 156.22 626.91 152.22 622.91 148.22 618.91 152.22" style="fill:#fff252" class="jsx-2185441056"></polyline><polyline points="688.01 251.03 692.01 255.03 696.01 251.03 692.01 247.03 688.01 251.03" style="fill:#fff252" class="jsx-2185441056"></polyline><polyline points="557.91 247.13 556.41 245.63 556.41 236.13 557.91 234.63 559.41 236.13 559.41 245.63 557.91 247.13" style="fill:#fff252" class="jsx-2185441056"></polyline><path d="M562.61,267.4h-9.4l-1.5-1.5,1.5-1.5h9.4l1.5,1.5-1.5,1.5m74.2-6.2-10.6-10.6,10.6-10.6,10.6,10.6-10.6,10.5" transform="translate(0 -24.98)" style="fill:#fff252" class="jsx-2185441056"></path><polyline points="59.5 222.03 48.9 211.43 59.5 200.82 70.1 211.43 59.5 221.93" style="fill:#fff252" class="jsx-2185441056"></polyline><polyline points="180.15 203.18 175.23 199.25 172.26 202.18 176.12 207.15 180.15 203.18" style="fill:#fff252" class="jsx-2185441056"></polyline><path d="M131.22,270.68l1.49,1.51-.08,9.5-1.51,1.49-1.49-1.51.08-9.5,1.51-1.49" transform="translate(0 -24.98)" style="fill:#fff252" class="jsx-2185441056"></path><polyline points="126.48 250.37 135.88 250.44 137.37 251.96 135.86 253.44 126.46 253.37 124.97 251.86 126.48 250.37" style="fill:#fff252" class="jsx-2185441056"></polyline><polyline points="239.91 324.23 243.91 320.23 239.91 316.23 235.91 320.23" style="fill:#fff252" class="jsx-2185441056"></polyline><line x1="235.91" y1="320.22" x2="239.91" y2="324.22" style="fill:#fff252" class="jsx-2185441056"></line><polyline points="220.24 240 230.75 250.68 220.07 261.2 209.55 250.52 220.24 240.1" style="fill:#fff252" class="jsx-2185441056"></polyline><polyline points="440.24 240 450.75 250.68 440.07 261.2 429.55 250.52 440.24 240.1" style="fill:#fff252" class="jsx-2185441056"></polyline><polyline points="220.24 0 230.75 10.68 220.07 21.2 209.55 10.52 220.24 0.1" style="fill:#fff252" class="jsx-2185441056"></polyline></g></svg>